<?xml version="1.0" encoding="utf-8"?>
<!-- Generator: Adobe Illustrator 25.4.1, SVG Export Plug-In . SVG Version: 6.00 Build 0)  -->
<svg version="1.1" id="Layer_1" xmlns="http://www.w3.org/2000/svg" xmlns:xlink="http://www.w3.org/1999/xlink" x="0px" y="0px"
	 viewBox="0 0 24 25.8" style="enable-background:new 0 0 24 25.8;" xml:space="preserve">
<style type="text/css">
	.st0{fill:none;stroke:#999999;stroke-width:1.5;stroke-linecap:round;stroke-linejoin:round;}
</style>
<g>
	<path class="st0" d="M22.8,8.9v8c0,1.3-0.7,2.5-1.9,3.2l-7.1,4c-1.2,0.7-2.6,0.7-3.7,0l-7.1-4c-1.2-0.7-1.9-1.9-1.9-3.2v-8
		c0-1.3,0.7-2.5,1.9-3.2l7.1-4c1.2-0.7,2.6-0.7,3.7,0l7.1,4C22.1,6.4,22.8,7.6,22.8,8.9z"/>
	<path class="st0" d="M12,11.7c1.5,0,2.8-1.2,2.8-2.7c0-1.5-1.2-2.7-2.8-2.7c-1.5,0-2.8,1.2-2.8,2.7C9.2,10.5,10.5,11.7,12,11.7z"/>
	<path class="st0" d="M16.8,18.4c0-2.1-2.1-3.8-4.8-3.8s-4.8,1.7-4.8,3.8"/>
</g>
</svg>
