<?xml version="1.0" encoding="utf-8"?>
<!-- Generator: Adobe Illustrator 26.0.1, SVG Export Plug-In . SVG Version: 6.00 Build 0)  -->
<svg version="1.1" id="Layer_1" xmlns="http://www.w3.org/2000/svg" xmlns:xlink="http://www.w3.org/1999/xlink" x="0px" y="0px"
	 viewBox="0 0 52.9 52.9" style="enable-background:new 0 0 52.9 52.9;" xml:space="preserve">
<style type="text/css">
	.st0{display:none;}
	.st1{display:inline;fill:none;stroke:#35B7F3;stroke-width:3;stroke-linecap:round;stroke-linejoin:round;stroke-miterlimit:10;}
	
		.st2{display:inline;opacity:0.4;fill:none;stroke:#35B7F3;stroke-width:3;stroke-linecap:round;stroke-linejoin:round;stroke-miterlimit:10;enable-background:new    ;}
	.st3{display:inline;fill:none;stroke:#35B7F3;stroke-width:3;stroke-linecap:round;stroke-linejoin:round;}
	.st4{display:inline;opacity:0.4;}
	.st5{fill:none;stroke:#35B7F3;stroke-width:3;stroke-linecap:round;stroke-linejoin:round;}
	
		.st6{display:inline;opacity:0.4;fill:none;stroke:#35B7F3;stroke-width:3;stroke-linecap:round;stroke-linejoin:round;enable-background:new    ;}
	.st7{opacity:0.4;fill:none;stroke:#35B7F3;stroke-width:3;stroke-linecap:round;stroke-linejoin:round;enable-background:new    ;}
</style>
<g class="st0">
	<path class="st1" d="M2.5,18c0-8.5,4.8-12.1,12-12.1h24c7.2,0,12,3.6,12,12.1v16.9c0,8.5-4.8,12.1-12,12.1h-24"/>
	<path class="st2" d="M38.5,19.2l-7.5,6c-2.5,2-6.5,2-9,0l-7.5-6"/>
	<path class="st2" d="M2.5,37.4h14.4"/>
	<path class="st2" d="M2.5,27.7h7.2"/>
</g>
<g class="st0">
	<path class="st3" d="M2.5,21.5v-2.4C2.5,6.9,7.3,2,19.3,2h14.4c12,0,16.8,4.9,16.8,17.1v14.7c0,12.2-4.8,17.2-16.8,17.2h-2.4"/>
	<g class="st4">
		<path class="st5" d="M28.9,24l12-12.3h-9.6"/>
		<path class="st5" d="M40.9,11.7v9.8"/>
	</g>
	<path class="st6" d="M24.1,36.6v6.6c0,5.5-2.2,7.7-7.6,7.7H10c-5.4,0-7.6-2.2-7.6-7.7v-6.6c0-5.5,2.2-7.7,7.6-7.7h6.5
		C21.9,28.9,24.1,31.1,24.1,36.6z"/>
</g>
<g>
	<path class="st7" d="M19.3,28.9c-1.6,0.8-2.9,2-3.9,3.5c-0.6,0.9-0.6,1.9,0,2.8c1,1.5,2.3,2.7,3.9,3.5"/>
	<path class="st7" d="M34.2,28.9c1.6,0.8,2.9,2,3.9,3.5c0.6,0.9,0.6,1.9,0,2.8c-1,1.5-2.3,2.7-3.9,3.5"/>
	<path class="st5" d="M19.3,51h14.4c12,0,16.8-4.9,16.8-17.2V19.1C50.5,6.9,45.7,2,33.7,2H19.3C7.3,2,2.5,6.9,2.5,19.1v14.7
		C2.5,46.1,7.3,51,19.3,51z"/>
	<path class="st7" d="M3,16.7l46.1,0"/>
</g>
</svg>
