<?xml version="1.0" encoding="utf-8"?>
<!-- Generator: Adobe Illustrator 25.4.1, SVG Export Plug-In . SVG Version: 6.00 Build 0)  -->
<svg version="1.1" id="Layer_1" xmlns="http://www.w3.org/2000/svg" xmlns:xlink="http://www.w3.org/1999/xlink" x="0px" y="0px"
	 viewBox="0 0 32 32" style="enable-background:new 0 0 32 32;" xml:space="preserve">
<style type="text/css">
	.st0{fill:#FFDD67;}
	.st1{fill:#EBA352;}
</style>
<g>
	<g>
		<path class="st0" d="M18.7,15.9c-0.3,1.2,0.5,2.3,1.7,2.6l0,0c1.2,0.3,2.4-0.5,2.6-1.6l3.2-13.5c0.3-1.2-0.5-2.3-1.7-2.6l0,0
			c-1.2-0.3-2.4,0.5-2.6,1.6L18.7,15.9z"/>
		<path class="st1" d="M19.5,17.8L19.5,17.8c1.2,0.3,2.4-0.5,2.7-1.6l3.1-13.5c0.1-0.6,0-1.2-0.4-1.7c1.1,0.5,1.5,1.4,1.2,2.4
			l-3.1,13.5c-0.3,1.2-1.4,1.9-2.6,1.6l0,0c-0.5-0.1-1-0.4-1.3-0.8C19.3,17.7,19.4,17.8,19.5,17.8z"/>
		<path class="st0" d="M22.8,17.3c0,0-4.5-4.4-12.4-2.2c0,0-4.7,0.8-4.4,3.2c0,0-0.2,5.9,1.9,9.4c3,5.2,14.7,6,17.7-3.6
			C26.1,22.1,25.6,17,22.8,17.3z"/>
		<path class="st0" d="M14.8,16.7c0.2,1.2,1.4,1.9,2.6,1.7l0,0c1.2-0.2,2-1.3,1.8-2.5L16.6,2.3c-0.2-1.2-1.4-1.9-2.6-1.7l0,0
			c-1.2,0.2-2,1.3-1.8,2.5L14.8,16.7z"/>
		<path class="st1" d="M16.3,18.1L16.3,18.1c1.2-0.2,2-1.4,1.8-2.5L15.5,2c-0.1-0.6-0.6-1.1-1.1-1.4c1.1,0,2,0.7,2.2,1.7l2.6,13.6
			c0.2,1.2-0.6,2.3-1.8,2.5l0,0c-0.5,0.1-1.1,0-1.5-0.3C16,18.1,16.2,18.1,16.3,18.1z"/>
		<path class="st0" d="M5.7,16.1c-0.1-1.2,0.7-2.3,2-2.4l0,0c1.2-0.1,2.3,0.7,2.4,1.9l0.4,3.4c0.1,1.2-0.7,2.3-2,2.4l0,0
			c-1.2,0.1-2.3-0.7-2.4-1.9L5.7,16.1z"/>
		<path class="st0" d="M9.9,13.6c-0.1-1.2,0.7-2.3,2-2.4l0,0c1.2-0.1,2.3,0.7,2.4,1.9l0.4,3.4c0.1,1.2-0.7,2.3-2,2.4l0,0
			c-1.2,0.1-2.3-0.7-2.4-1.9L9.9,13.6z"/>
		<path class="st1" d="M7.8,20.6L7.8,20.6c1.2-0.1,2.1-1.2,2-2.4l-0.4-3.4c0-0.3-0.2-0.7-0.4-1c0.8,0.4,1,1,1.1,1.7l0.4,3.4
			c0.1,1.2-0.7,2.2-1.9,2.4l0,0c-0.9,0.1-1.7-0.3-2.1-1.1C6.8,20.5,7.3,20.7,7.8,20.6z"/>
		<path class="st1" d="M11.9,18.2L11.9,18.2c1.2-0.1,2.1-1.2,2-2.4l-0.4-3.4c0-0.3-0.2-0.7-0.4-1c0.7,0.4,1.1,1,1.1,1.7l0.4,3.4
			c0.1,1.2-0.7,2.2-1.9,2.4l0,0c-0.9,0.1-1.7-0.3-2.1-1.1C11,18.1,11.4,18.3,11.9,18.2z"/>
		<path class="st1" d="M20.8,20.5c-2.5-1.2-8.1,0.8-7,6C13.9,21.2,18.7,20.3,20.8,20.5z"/>
		<path class="st1" d="M19.9,15.2c-1.8-1.1-2.1,0.6-5.1,0.7c-1.3,0-1.9,2.8,0.1,3.8c2.8,1.4,3-0.6,3.7,0.2c0.7,0.8,1.4,1,2,1.9
			c0.4,0.7,3.9-0.4,4.3-1.8C25.5,17.3,22.7,16.9,19.9,15.2z"/>
		<path class="st0" d="M20.1,15.7c-1.8-1.1-2.2,0.6-5.4,0.7c-1.4,0-2,2.9,0.1,3.9c2.9,1.4,3.1-0.6,3.8,0.2c0.8,0.8,1.5,1,2.1,2
			c0.5,0.7-0.8,3.4-0.8,3.4s3.6,2.5,4.3,1.1c1.3-2.6,1-4.7,0.9-6.3C25.1,17.1,23.1,17.4,20.1,15.7z"/>
		<path class="st1" d="M23.7,17.5c2,0.9,1.9,6,0.4,8.5c-3.7,6.1-11.7,6-15.5,2.7c3.5,3.8,12,4.1,16-2.2C26.2,24,26.7,18.1,23.7,17.5
			z"/>
		<path class="st1" d="M20.4,22.6c0.1,0.2,0.1,0.6,0,1.1c0.2-0.7,0.4-1.4,0.1-1.7c-0.6-1-1-1.2-1.7-2c-0.7-0.8-0.9,1.2-3.8-0.2
			c-1.1-0.5-1.4-1.5-1.3-2.4c-0.4,0.9-0.2,2.4,1.2,3.1c2.9,1.4,3.1-0.6,3.8,0.2C19.4,21.4,19.7,21.6,20.4,22.6z"/>
	</g>
</g>
</svg>
