<?xml version="1.0" encoding="utf-8"?>
<!-- Generator: Adobe Illustrator 26.0.2, SVG Export Plug-In . SVG Version: 6.00 Build 0)  -->
<svg version="1.1" id="Layer_1" xmlns="http://www.w3.org/2000/svg" xmlns:xlink="http://www.w3.org/1999/xlink" x="0px" y="0px"
	 viewBox="0 0 76 67" style="enable-background:new 0 0 76 67;" xml:space="preserve">
<style type="text/css">
	.st0{fill:#FFFFFF;stroke:#CECECE;stroke-width:2;stroke-linecap:round;stroke-miterlimit:10;stroke-dasharray:5;}
	.st1{fill:#F7F4F2;stroke:#EAE5E1;stroke-width:5;stroke-miterlimit:10;}
	.st2{fill:#FFFFFF;stroke:#35B7F3;stroke-width:2;stroke-miterlimit:10;}
	.st3{fill:#35B7F3;}
	.st4{fill:none;stroke:#35B7F3;stroke-width:4;stroke-linecap:round;stroke-miterlimit:10;}
	.st5{display:none;}
	.st6{display:inline;opacity:0.5;fill:none;stroke:#35B7F3;stroke-width:2;stroke-miterlimit:10;}
	.st7{display:inline;fill:#35B7F3;}
	.st8{display:inline;opacity:0.5;fill:#35B7F3;}
	.st9{display:inline;opacity:0.3;fill:#35B7F3;}
	.st10{display:inline;opacity:0.4;fill:#35B7F3;}
	.st11{display:inline;opacity:0.6;}
	.st12{fill:#FFFFFF;}
</style>
<g>
	<path class="st0" d="M59.9,50.6H8.2c-3.3,0-5.9-2.6-5.9-5.9V8.3c0-3.3,2.6-5.9,5.9-5.9h51.7c3.3,0,5.9,2.6,5.9,5.9v36.4
		C65.9,48,63.2,50.6,59.9,50.6z"/>
	
		<rect x="43.5" y="21.6" transform="matrix(-1 -4.883439e-11 4.883439e-11 -1 107.3351 55.9292)" class="st1" width="20.3" height="12.8"/>
	<line class="st1" x1="41.8" y1="42.2" x2="65.5" y2="42.2"/>
	<line class="st1" x1="41.8" y1="48.9" x2="65.5" y2="48.9"/>
	<path class="st2" d="M69.8,63.2H24c-2.5,0-4.6-2.1-4.6-4.6V20c0-2.5,2.1-4.6,4.6-4.6h45.8c2.5,0,4.6,2.1,4.6,4.6v38.7
		C74.4,61.2,72.3,63.2,69.8,63.2z"/>
	<path class="st3" d="M39.2,53.4H29c-1.5,0-2.7-1.2-2.7-2.7v-17c0-1.5,1.2-2.7,2.7-2.7h10.1c1.5,0,2.7,1.2,2.7,2.7v17
		C41.9,52.2,40.7,53.4,39.2,53.4z"/>
	<path class="st3" d="M52.9,40.7h10.3c1.5,0,2.7-1.2,2.7-2.7v-4.5c0-1.5-1.2-2.7-2.7-2.7H52.9c-1.5,0-2.7,1.2-2.7,2.7v4.5
		C50.3,39.5,51.5,40.7,52.9,40.7z"/>
	<path class="st2" d="M70.1,14.9H23.7c-2.4,0-4.3,1.9-4.3,4.3v0c0,1.3,1,2.3,2.3,2.3h50.4c1.3,0,2.3-1,2.3-2.3v0
		C74.4,16.8,72.5,14.9,70.1,14.9z"/>
	<line class="st4" x1="51.1" y1="46.7" x2="64.6" y2="46.7"/>
	<line class="st4" x1="51.1" y1="51.9" x2="64.6" y2="51.9"/>
</g>
<g class="st5">
	<path class="st6" d="M66.6,64.7H9.4c-3.4,0-6.1-2.7-6.1-6.1V8.4c0-3.4,2.7-6.1,6.1-6.1h57.1c3.4,0,6.1,2.7,6.1,6.1v50.2
		C72.6,61.9,69.9,64.7,66.6,64.7z"/>
	<path class="st7" d="M32.6,29.9H13.1c-1.7,0-3.1-1.4-3.1-3.1V14.3c0-1.7,1.4-3.1,3.1-3.1h19.5c1.7,0,3.1,1.4,3.1,3.1v12.4
		C35.7,28.5,34.3,29.9,32.6,29.9z"/>
	<path class="st8" d="M24.5,32.5H12.9c-1.2,0-2.3,1-2.3,2.3v0c0,1.2,1,2.3,2.3,2.3h11.6c1.2,0,2.3-1,2.3-2.3v0
		C26.7,33.5,25.7,32.5,24.5,32.5z"/>
	<path class="st9" d="M27.6,38.9H11.7c-0.6,0-1.1,0.5-1.1,1.1l0,0c0,0.6,0.5,1.1,1.1,1.1h15.9c0.6,0,1.1-0.5,1.1-1.1l0,0
		C28.7,39.4,28.2,38.9,27.6,38.9z"/>
	<path class="st10" d="M30.8,42.8H11.7c-0.6,0-1.1,0.5-1.1,1.1v0c0,0.6,0.5,1.1,1.1,1.1h19.1c0.6,0,1.1-0.5,1.1-1.1v0
		C31.9,43.3,31.4,42.8,30.8,42.8z"/>
	<path class="st10" d="M25,46.7H11.7c-0.6,0-1.1,0.5-1.1,1.1l0,0c0,0.6,0.5,1.1,1.1,1.1H25c0.6,0,1.1-0.5,1.1-1.1l0,0
		C26.1,47.1,25.6,46.7,25,46.7z"/>
	<path class="st8" d="M59.3,32.5H44.4c-1.2,0-2.3,1-2.3,2.3v0c0,1.2,1,2.3,2.3,2.3h14.8c1.2,0,2.3-1,2.3-2.3v0
		C61.5,33.5,60.5,32.5,59.3,32.5z"/>
	<path class="st9" d="M56.6,38.9H43.3c-0.6,0-1.1,0.5-1.1,1.1l0,0c0,0.6,0.5,1.1,1.1,1.1h13.3c0.6,0,1.1-0.5,1.1-1.1l0,0
		C57.7,39.4,57.2,38.9,56.6,38.9z"/>
	<path class="st10" d="M62.4,42.8H43.3c-0.6,0-1.1,0.5-1.1,1.1v0c0,0.6,0.5,1.1,1.1,1.1h19.1c0.6,0,1.1-0.5,1.1-1.1v0
		C63.5,43.3,63,42.8,62.4,42.8z"/>
	<path class="st10" d="M53.4,46.7H43.3c-0.6,0-1.1,0.5-1.1,1.1l0,0c0,0.6,0.5,1.1,1.1,1.1h10.1c0.6,0,1.1-0.5,1.1-1.1l0,0
		C54.4,47.1,54,46.7,53.4,46.7z"/>
	<g class="st11">
		<path class="st12" d="M19,19.6c0.9,0,1.6-0.7,1.6-1.6c0-0.9-0.7-1.6-1.6-1.6c-0.9,0-1.6,0.7-1.6,1.6C17.4,18.9,18.1,19.6,19,19.6
			L19,19.6z M19,17c0.6,0,1,0.5,1,1c0,0.6-0.5,1-1,1c-0.6,0-1-0.5-1-1C18,17.4,18.5,17,19,17L19,17z M19,17"/>
		<path class="st12" d="M16.5,24.7c0.1,0,0.1,0,0.2-0.1l4.6-4.1l2.9,2.9c0.1,0.1,0.3,0.1,0.4,0c0.1-0.1,0.1-0.3,0-0.4l-1.4-1.4
			l2.6-2.9l3.2,2.9c0.1,0.1,0.3,0.1,0.4,0c0.1-0.1,0.1-0.3,0-0.4L26,18.2c-0.1-0.1-0.1-0.1-0.2-0.1c-0.1,0-0.1,0-0.2,0.1l-2.8,3.1
			l-1.4-1.3c-0.1-0.1-0.3-0.1-0.4,0l-4.8,4.3c-0.1,0.1-0.1,0.3,0,0.4C16.3,24.6,16.4,24.7,16.5,24.7L16.5,24.7z M16.5,24.7"/>
	</g>
	<path class="st7" d="M62.9,29.9H43.4c-1.7,0-3.1-1.4-3.1-3.1V14.3c0-1.7,1.4-3.1,3.1-3.1h19.5c1.7,0,3.1,1.4,3.1,3.1v12.4
		C66,28.5,64.6,29.9,62.9,29.9z"/>
	<g class="st11">
		<path class="st12" d="M49.3,19.6c0.9,0,1.6-0.7,1.6-1.6c0-0.9-0.7-1.6-1.6-1.6c-0.9,0-1.6,0.7-1.6,1.6
			C47.7,18.9,48.4,19.6,49.3,19.6L49.3,19.6z M49.3,17c0.6,0,1,0.5,1,1c0,0.6-0.5,1-1,1s-1-0.5-1-1C48.3,17.4,48.7,17,49.3,17
			L49.3,17z M49.3,17"/>
		<path class="st12" d="M46.7,24.7c0.1,0,0.1,0,0.2-0.1l4.6-4.1l2.9,2.9c0.1,0.1,0.3,0.1,0.4,0c0.1-0.1,0.1-0.3,0-0.4l-1.4-1.4
			l2.6-2.9l3.2,2.9c0.1,0.1,0.3,0.1,0.4,0c0.1-0.1,0.1-0.3,0-0.4l-3.4-3.1c-0.1-0.1-0.1-0.1-0.2-0.1c-0.1,0-0.1,0-0.2,0.1l-2.8,3.1
			l-1.4-1.3c-0.1-0.1-0.3-0.1-0.4,0l-4.8,4.3c-0.1,0.1-0.1,0.3,0,0.4C46.6,24.6,46.7,24.7,46.7,24.7L46.7,24.7z M46.7,24.7"/>
	</g>
	<circle class="st9" cx="46.4" cy="54.1" r="2.9"/>
	<circle class="st9" cx="14.8" cy="54.1" r="2.9"/>
	<circle class="st7" cx="14.8" cy="54.1" r="1.3"/>
</g>
</svg>
