<?xml version="1.0" encoding="utf-8"?>
<!-- Generator: Adobe Illustrator 25.4.1, SVG Export Plug-In . SVG Version: 6.00 Build 0)  -->
<svg version="1.1" id="Layer_2" xmlns="http://www.w3.org/2000/svg" xmlns:xlink="http://www.w3.org/1999/xlink" x="0px" y="0px"
	 viewBox="0 0 32 32" style="enable-background:new 0 0 32 32;" xml:space="preserve">
<style type="text/css">
	.st0{fill:#1DB954;}
</style>
<g>
	<path class="st0" d="M8.3,29.1h15.5c2.7,0,5-1.8,5.7-4.4l1.9-6.7c0.4-1.5-0.1-3.1-1.4-4c-1.3-0.9-3-0.9-4.3,0L25,14.4
		c-0.2,0.2-0.5,0.1-0.6,0.1c-0.1,0-0.3-0.1-0.5-0.4l-4.6-9.2c-0.6-1.3-1.9-2.1-3.3-2.1s-2.7,0.8-3.3,2.1l-4.6,9.2
		c-0.1,0.3-0.4,0.4-0.5,0.4c-0.1,0-0.4,0.1-0.6-0.1L6.4,14c-1.3-0.9-3-0.9-4.3,0c-1.3,0.9-1.9,2.5-1.4,4l1.9,6.7
		C3.2,27.3,5.6,29.1,8.3,29.1z M3.8,16.4c0.1-0.1,0.2-0.1,0.4-0.1c0.1,0,0.3,0,0.4,0.1l0.6,0.5c0.9,0.6,2,0.8,3.1,0.6
		c1.1-0.3,1.9-1,2.4-2l4.6-9.2c0.2-0.4,0.5-0.4,0.7-0.4s0.5,0,0.7,0.4l4.6,9.2c0.5,1,1.4,1.7,2.4,2c1.1,0.3,2.2,0.1,3.1-0.6l0.6-0.5
		c0.4-0.3,0.7-0.1,0.8,0c0.1,0.1,0.4,0.3,0.3,0.8L26.6,24c-0.4,1.3-1.5,2.2-2.8,2.2H8.3c-1.3,0-2.5-0.9-2.8-2.2l-1.9-6.7
		C3.4,16.8,3.7,16.5,3.8,16.4z"/>
</g>
</svg>
