<?xml version="1.0" encoding="utf-8"?>
<!-- Generator: Adobe Illustrator 25.4.1, SVG Export Plug-In . SVG Version: 6.00 Build 0)  -->
<svg version="1.1" id="Layer_1" xmlns="http://www.w3.org/2000/svg" xmlns:xlink="http://www.w3.org/1999/xlink" x="0px" y="0px"
	 viewBox="0 0 21.1 26.5" style="enable-background:new 0 0 21.1 26.5;" xml:space="preserve">
<style type="text/css">
	.st0{fill:#0890FE;}
</style>
<g id="Layer_12">
	<path class="st0" d="M20,4.3l-9-4c-0.3-0.1-0.6-0.1-0.8,0l-9,4C0.8,4.5,0.6,4.9,0.6,5.2v8.6c0,2.5,1.1,4.8,2.9,6.4L9.9,26
		c0.4,0.3,0.9,0.3,1.3,0l6.4-5.7c1.8-1.6,2.9-4,2.9-6.4V5.2C20.6,4.9,20.3,4.5,20,4.3z M18.6,13.8c0,1.9-0.8,3.7-2.2,5l-5.8,5.1
		l-5.8-5.1c-1.4-1.3-2.2-3.1-2.2-5V5.9l8-3.6l8,3.6V13.8z"/>
	<path class="st0" d="M7.6,11.5c-0.4-0.4-1-0.4-1.4,0s-0.4,1,0,1.4l2.5,2.5c0.4,0.4,1,0.4,1.4,0c0,0,0,0,0,0l5-5
		c0.4-0.4,0.4-1.1,0-1.5c-0.4-0.4-1.1-0.4-1.5,0l0,0l-4.3,4.3L7.6,11.5z"/>
</g>
</svg>
