<?xml version="1.0" encoding="utf-8"?>
<!-- Generator: Adobe Illustrator 25.4.1, SVG Export Plug-In . SVG Version: 6.00 Build 0)  -->
<svg version="1.1" id="Layer_1" xmlns="http://www.w3.org/2000/svg" xmlns:xlink="http://www.w3.org/1999/xlink" x="0px" y="0px"
	 viewBox="0 0 22 22" style="enable-background:new 0 0 22 22;" xml:space="preserve">
<style type="text/css">
	.st0{fill:none;stroke:#35B7F3;stroke-width:1.5;stroke-linecap:round;stroke-linejoin:round;}
	.st1{fill:none;stroke:#35B7F3;stroke-width:2;stroke-linecap:round;stroke-linejoin:round;}
</style>
<g>
	<path class="st0" d="M6.3,1.3h9.4c0.6,0,1.2,0,1.7,0.1c2.7,0.3,3.5,1.6,3.5,5v6.2c0,3.5-0.7,4.7-3.5,5c-0.5,0.1-1.1,0.1-1.7,0.1
		H6.3c-0.6,0-1.2,0-1.7-0.1c-2.7-0.3-3.5-1.6-3.5-5V6.4c0-3.5,0.7-4.7,3.5-5C5.1,1.3,5.7,1.3,6.3,1.3z"/>
	<path class="st0" d="M12.6,7.4h3.6"/>
	<path class="st0" d="M5.8,13.1L5.8,13.1h10.4"/>
	<path class="st0" d="M6.1,20.7H16"/>
	<path class="st1" d="M6.2,7.4L6.2,7.4"/>
	<path class="st1" d="M9.5,7.4L9.5,7.4"/>
</g>
</svg>
