<?xml version="1.0" encoding="utf-8"?>
<!-- Generator: Adobe Illustrator 25.4.1, SVG Export Plug-In . SVG Version: 6.00 Build 0)  -->
<svg version="1.1" id="Layer_1" xmlns="http://www.w3.org/2000/svg" xmlns:xlink="http://www.w3.org/1999/xlink" x="0px" y="0px"
	 viewBox="0 0 14.4 14.4" style="enable-background:new 0 0 14.4 14.4;" xml:space="preserve">
<style type="text/css">
	.st0{fill:none;stroke:#0890FE;stroke-width:1.5;stroke-linecap:round;stroke-linejoin:round;}
</style>
<path class="st0" d="M3.8,2.6h6.9c0.6,0,1.1,0.5,1.1,1.1v6.9c0,0.6-0.5,1.1-1.1,1.1H3.8c-0.6,0-1.1-0.5-1.1-1.1V3.8
	C2.6,3.1,3.1,2.6,3.8,2.6z"/>
<rect x="5.5" y="5.5" class="st0" width="3.4" height="3.4"/>
<line class="st0" x1="5.5" y1="0.9" x2="5.5" y2="2.6"/>
<line class="st0" x1="8.9" y1="0.9" x2="8.9" y2="2.6"/>
<line class="st0" x1="5.5" y1="11.8" x2="5.5" y2="13.5"/>
<line class="st0" x1="8.9" y1="11.8" x2="8.9" y2="13.5"/>
<line class="st0" x1="11.8" y1="5.5" x2="13.5" y2="5.5"/>
<line class="st0" x1="11.8" y1="8.4" x2="13.5" y2="8.4"/>
<line class="st0" x1="0.9" y1="5.5" x2="2.6" y2="5.5"/>
<line class="st0" x1="0.9" y1="8.4" x2="2.6" y2="8.4"/>
</svg>
