<?xml version="1.0" encoding="utf-8"?>
<!-- Generator: Adobe Illustrator 25.4.1, SVG Export Plug-In . SVG Version: 6.00 Build 0)  -->
<svg version="1.1" id="Layer_1" xmlns="http://www.w3.org/2000/svg" xmlns:xlink="http://www.w3.org/1999/xlink" x="0px" y="0px"
	 viewBox="0 0 15.1 15.2" style="enable-background:new 0 0 15.1 15.2;" xml:space="preserve">
<style type="text/css">
	.st0{fill:none;stroke:#0890FE;stroke-width:1.5;stroke-linecap:round;stroke-linejoin:round;}
	.st1{fill:#0890FE;}
</style>
<path class="st0" d="M2.6,1.2h9.9c0.8,0,1.4,0.6,1.4,1.4v9.9c0,0.8-0.6,1.4-1.4,1.4H2.6c-0.8,0-1.4-0.6-1.4-1.4V2.7
	C1.2,1.9,1.8,1.2,2.6,1.2z"/>
<path class="st1" d="M4.9,4.1h1.2c0.3,0,0.6,0.3,0.6,0.6v5.1c0,0.3-0.3,0.6-0.6,0.6H4.9c-0.3,0-0.6-0.3-0.6-0.6V4.7
	C4.3,4.3,4.5,4.1,4.9,4.1z"/>
<path class="st1" d="M9,4.1h1.2c0.3,0,0.6,0.3,0.6,0.6V7c0,0.3-0.3,0.6-0.6,0.6H9C8.7,7.6,8.4,7.3,8.4,7V4.7C8.4,4.3,8.7,4.1,9,4.1z
	"/>
</svg>
