<?xml version="1.0" encoding="utf-8"?>
<!-- Generator: Adobe Illustrator 25.4.1, SVG Export Plug-In . SVG Version: 6.00 Build 0)  -->
<svg version="1.1" id="Layer_1" xmlns="http://www.w3.org/2000/svg" xmlns:xlink="http://www.w3.org/1999/xlink" x="0px" y="0px"
	 viewBox="0 0 100 100" style="enable-background:new 0 0 100 100;" xml:space="preserve">
<style type="text/css">
	.st0{fill:#F62C2C;}
	.st1{opacity:0.3;fill:#999999;}
	.st2{opacity:0.5;fill:#999999;}
</style>
<path class="st0" d="M43.3,65.8c0.4,0.4,0.9,0.6,1.4,0.6s1-0.2,1.4-0.6l3.9-3.9l3.9,3.9c0.4,0.4,0.9,0.6,1.4,0.6s1-0.2,1.4-0.6
	c0.8-0.8,0.8-2,0-2.8l-3.9-3.9l3.9-3.9c0.8-0.8,0.8-2,0-2.8s-2-0.8-2.8,0L50,56.2l-3.9-3.9c-0.8-0.8-2-0.8-2.8,0s-0.8,2,0,2.8
	l3.9,3.9L43.3,63C42.5,63.7,42.5,65,43.3,65.8z"/>
<path class="st1" d="M88.7,16.5c0-1.1-0.9-2-2-2H69.6C68.7,8,63.1,3,56.4,3H43.6c-6.7,0-12.3,5-13.3,11.4H13.3c-1.1,0-2,0.9-2,2
	s0.9,2,2,2h18.9h35.6h18.9C87.8,18.5,88.7,17.6,88.7,16.5z M34.4,14.5c0.9-4.2,4.7-7.4,9.2-7.4h12.7c4.5,0,8.3,3.2,9.2,7.4H34.4z"/>
<path class="st2" d="M22.7,21.2c-0.5,0-1.1,0.2-1.5,0.6s-0.6,0.9-0.5,1.5L24,85.4C24.3,91.9,29.7,97,36.2,97h27.7
	c6.5,0,11.8-5.1,12.2-11.6l3.3-62.2c0-0.5-0.2-1.1-0.5-1.5s-0.9-0.6-1.5-0.6L22.7,21.2z M48,42.1c-3.6,0.4-6.8,2-9.4,4.2l-1.1-21.2
	H48V42.1z M50,46C50,46,50,46,50,46C50,46,50,46,50,46c7.2,0,13.1,5.9,13.1,13.1c0,7.2-5.9,13.1-13.1,13.1s-13.1-5.9-13.1-13.1
	C36.9,51.9,42.8,46,50,46z M61.4,46.3c-2.6-2.3-5.8-3.8-9.4-4.2V25.2h10.5L61.4,46.3z M72,85.2c-0.2,4.4-3.8,7.8-8.2,7.8H36.2
	c-4.4,0-8-3.4-8.2-7.8l-3.2-60h8.7l1.4,26c-1.3,2.4-2,5.1-2,8c0,9.4,7.7,17.1,17.1,17.1s17.1-7.7,17.1-17.1c0-2.9-0.7-5.6-2-8
	l1.4-26h8.7L72,85.2z"/>
</svg>
