<?xml version="1.0" encoding="utf-8"?>
<!-- Generator: Adobe Illustrator 26.0.1, SVG Export Plug-In . SVG Version: 6.00 Build 0)  -->
<svg version="1.1" id="Layer_1" xmlns="http://www.w3.org/2000/svg" xmlns:xlink="http://www.w3.org/1999/xlink" x="0px" y="0px"
	 viewBox="0 0 101.6 104.5" style="enable-background:new 0 0 101.6 104.5;" xml:space="preserve">
<style type="text/css">
	.st0{fill:none;stroke:#E5E8EA;stroke-width:0.75;stroke-miterlimit:10;}
	.st1{fill:#F0F1F2;stroke:#E5E8EA;stroke-width:0.75;stroke-miterlimit:10;}
	.st2{fill:#35B7F3;}
	.st3{opacity:0.5;fill:#35B7F3;}
	.st4{opacity:0.3;fill:#35B7F3;}
	.st5{opacity:0.4;fill:#35B7F3;}
	.st6{opacity:0.6;}
	.st7{fill:#FFFFFF;}
	.st8{fill:#D8DDE1;}
	.st9{display:none;}
	.st10{display:inline;fill:none;stroke:#E5E8EA;stroke-width:0.75;stroke-miterlimit:10;}
	.st11{display:inline;fill:#F0F1F2;stroke:#E5E8EA;stroke-width:0.75;stroke-miterlimit:10;}
	.st12{display:inline;fill:#35B7F3;}
	.st13{display:inline;opacity:0.4;fill:#35B7F3;}
	.st14{display:inline;fill:#D8DDE1;}
	.st15{display:inline;}
</style>
<g>
	<path class="st0" d="M94.7,103.7H6.9c-3.4,0-6.1-2.7-6.1-6.1V6.8c0-3.4,2.7-6.1,6.1-6.1h87.8c3.4,0,6.1,2.7,6.1,6.1v90.8
		C100.8,101,98.1,103.7,94.7,103.7z"/>
	<path class="st1" d="M100.8,6.8c0-3.4-2.7-6.1-6.1-6.1H6.9c-3.4,0-6.1,2.7-6.1,6.1v8.4h100V6.8z"/>
	<path class="st2" d="M44.2,53.2H10.4c-1.7,0-3.1-1.4-3.1-3.1V27.4c0-1.7,1.4-3.1,3.1-3.1h33.8c1.7,0,3.1,1.4,3.1,3.1v22.7
		C47.3,51.8,45.9,53.2,44.2,53.2z"/>
	<path class="st3" d="M29.8,57.2h-18c-1.9,0-3.5,1.6-3.5,3.5v0c0,1.9,1.6,3.5,3.5,3.5h18c1.9,0,3.5-1.6,3.5-3.5v0
		C33.3,58.8,31.8,57.2,29.8,57.2z"/>
	<path class="st4" d="M34.6,67.2H10c-0.9,0-1.7,0.7-1.7,1.7v0c0,0.9,0.7,1.7,1.7,1.7h24.7c0.9,0,1.7-0.7,1.7-1.7v0
		C36.3,68,35.6,67.2,34.6,67.2z"/>
	<path class="st5" d="M39.6,73.2H10c-0.9,0-1.7,0.7-1.7,1.7l0,0c0,0.9,0.7,1.7,1.7,1.7h29.7c0.9,0,1.7-0.7,1.7-1.7l0,0
		C41.3,74,40.6,73.2,39.6,73.2z"/>
	<path class="st5" d="M30.6,79.2H10c-0.9,0-1.7,0.7-1.7,1.7l0,0c0,0.9,0.7,1.7,1.7,1.7h20.7c0.9,0,1.7-0.7,1.7-1.7l0,0
		C32.3,80,31.6,79.2,30.6,79.2z"/>
	<path class="st3" d="M83.8,57.2h-23c-1.9,0-3.5,1.6-3.5,3.5v0c0,1.9,1.6,3.5,3.5,3.5h23c1.9,0,3.5-1.6,3.5-3.5v0
		C87.3,58.8,85.8,57.2,83.8,57.2z"/>
	<path class="st4" d="M79.6,67.2H59c-0.9,0-1.7,0.7-1.7,1.7v0c0,0.9,0.7,1.7,1.7,1.7h20.7c0.9,0,1.7-0.7,1.7-1.7v0
		C81.3,68,80.6,67.2,79.6,67.2z"/>
	<path class="st5" d="M88.6,73.2H59c-0.9,0-1.7,0.7-1.7,1.7l0,0c0,0.9,0.7,1.7,1.7,1.7h29.7c0.9,0,1.7-0.7,1.7-1.7l0,0
		C90.3,74,89.6,73.2,88.6,73.2z"/>
	<path class="st5" d="M74.6,79.2H59c-0.9,0-1.7,0.7-1.7,1.7v0c0,0.9,0.7,1.7,1.7,1.7h15.7c0.9,0,1.7-0.7,1.7-1.7v0
		C76.3,80,75.6,79.2,74.6,79.2z"/>
	<g class="st6">
		<path class="st7" d="M21.4,37.3c1.4,0,2.5-1.1,2.5-2.5c0-1.4-1.1-2.5-2.5-2.5c-1.4,0-2.5,1.1-2.5,2.5C18.9,36.1,20,37.3,21.4,37.3
			L21.4,37.3z M21.4,33.2c0.9,0,1.6,0.7,1.6,1.6c0,0.9-0.7,1.6-1.6,1.6c-0.9,0-1.6-0.7-1.6-1.6C19.8,33.9,20.5,33.2,21.4,33.2
			L21.4,33.2z M21.4,33.2"/>
		<path class="st7" d="M17.4,45.1c0.1,0,0.2,0,0.3-0.1l7.2-6.3l4.5,4.5c0.2,0.2,0.5,0.2,0.6,0c0.2-0.2,0.2-0.5,0-0.6l-2.1-2.1L32,36
			l5,4.6c0.2,0.2,0.5,0.2,0.6,0c0.2-0.2,0.2-0.5,0-0.6l-5.3-4.9C32.2,35,32.1,35,31.9,35c-0.1,0-0.2,0.1-0.3,0.1l-4.3,4.7l-2.1-2.1
			c-0.2-0.2-0.4-0.2-0.6,0l-7.5,6.6c-0.2,0.2-0.2,0.4,0,0.6C17.1,45.1,17.3,45.1,17.4,45.1L17.4,45.1z M17.4,45.1"/>
	</g>
	<path class="st2" d="M91.2,53.2H57.4c-1.7,0-3.1-1.4-3.1-3.1V27.4c0-1.7,1.4-3.1,3.1-3.1h33.8c1.7,0,3.1,1.4,3.1,3.1v22.7
		C94.3,51.8,92.9,53.2,91.2,53.2z"/>
	<g class="st6">
		<path class="st7" d="M68.4,37.3c1.4,0,2.5-1.1,2.5-2.5c0-1.4-1.1-2.5-2.5-2.5c-1.4,0-2.5,1.1-2.5,2.5C65.9,36.1,67,37.3,68.4,37.3
			L68.4,37.3z M68.4,33.2c0.9,0,1.6,0.7,1.6,1.6c0,0.9-0.7,1.6-1.6,1.6s-1.6-0.7-1.6-1.6C66.8,33.9,67.5,33.2,68.4,33.2L68.4,33.2z
			 M68.4,33.2"/>
		<path class="st7" d="M64.4,45.1c0.1,0,0.2,0,0.3-0.1l7.2-6.3l4.5,4.5c0.2,0.2,0.5,0.2,0.6,0c0.2-0.2,0.2-0.5,0-0.6l-2.1-2.1L79,36
			l5,4.6c0.2,0.2,0.5,0.2,0.6,0c0.2-0.2,0.2-0.5,0-0.6l-5.3-4.9C79.2,35,79.1,35,78.9,35c-0.1,0-0.2,0.1-0.3,0.1l-4.3,4.7l-2.1-2.1
			c-0.2-0.2-0.4-0.2-0.6,0l-7.5,6.6c-0.2,0.2-0.2,0.4,0,0.6C64.1,45.1,64.3,45.1,64.4,45.1L64.4,45.1z M64.4,45.1"/>
	</g>
	<circle class="st8" cx="9.3" cy="8.2" r="2"/>
	<circle class="st8" cx="16.8" cy="8.2" r="2"/>
	<circle class="st8" cx="24.3" cy="8.2" r="2"/>
	<circle class="st4" cx="63.8" cy="90.7" r="4.5"/>
	<circle class="st4" cx="14.8" cy="90.7" r="4.5"/>
	<circle class="st2" cx="14.8" cy="90.7" r="2"/>
</g>
<g class="st9">
	<path class="st10" d="M94.7,103.7H6.9c-3.4,0-6.1-2.7-6.1-6.1V6.8c0-3.4,2.7-6.1,6.1-6.1h87.8c3.4,0,6.1,2.7,6.1,6.1v90.8
		C100.8,101,98.1,103.7,94.7,103.7z"/>
	<path class="st11" d="M100.8,6.8c0-3.4-2.7-6.1-6.1-6.1H6.9c-3.4,0-6.1,2.7-6.1,6.1v8.4h100V6.8z"/>
	<path class="st12" d="M59.6,95.2H42.1c-1,0-1.7-0.8-1.7-1.7v0c0-1,0.8-1.7,1.7-1.7h17.5c1,0,1.7,0.8,1.7,1.7v0
		C61.3,94.5,60.5,95.2,59.6,95.2z"/>
	<path class="st13" d="M79.6,59.2H22.1c-1,0-1.7-0.8-1.7-1.7v0c0-1,0.8-1.7,1.7-1.7h57.5c1,0,1.7,0.8,1.7,1.7v0
		C81.3,58.5,80.5,59.2,79.6,59.2z"/>
	<path class="st13" d="M70.3,66.2h-39c-1,0-1.7-0.8-1.7-1.7v0c0-1,0.8-1.7,1.7-1.7h39c1,0,1.7,0.8,1.7,1.7v0
		C72.1,65.5,71.3,66.2,70.3,66.2z"/>
	<path class="st13" d="M62.9,74.2H38.7c-1,0-1.7-0.8-1.7-1.7v0c0-1,0.8-1.7,1.7-1.7h24.2c1,0,1.7,0.8,1.7,1.7v0
		C64.7,73.5,63.9,74.2,62.9,74.2z"/>
	<circle class="st14" cx="9.3" cy="8.2" r="2"/>
	<circle class="st14" cx="16.8" cy="8.2" r="2"/>
	<circle class="st14" cx="24.3" cy="8.2" r="2"/>
	<path class="st12" d="M51.1,47.3h-0.6c-6.5,0-11.8-5.3-11.8-11.8v0c0-6.5,5.3-11.8,11.8-11.8h0.6c6.5,0,11.8,5.3,11.8,11.8v0
		C62.9,42,57.6,47.3,51.1,47.3z"/>
	<g class="st15">
		<path class="st7" d="M47.7,33.8c0.9-0.9,1.9-1.3,3.2-1.3c1.2,0,2.3,0.4,3.2,1.3s1.3,1.9,1.3,3.2c0,0.7-0.2,1.5-0.5,2.1
			c-0.4,0.7-0.8,1.2-1.5,1.6c1.2,0.5,2.1,1.3,2.8,2.3c0.7,1.1,1.1,2.2,1.1,3.5h-1.3c0-1.4-0.5-2.6-1.5-3.6c-1-1-2.2-1.5-3.6-1.5
			c-1.4,0-2.6,0.5-3.6,1.5c-1,1-1.5,2.2-1.5,3.6h-1.3c0-1.3,0.4-2.5,1.1-3.5c0.7-1.1,1.7-1.8,2.8-2.3c-0.6-0.4-1.1-0.9-1.5-1.6
			c-0.4-0.7-0.5-1.4-0.5-2.1C46.3,35.8,46.8,34.7,47.7,33.8z M53.1,34.7c-0.6-0.6-1.4-0.9-2.3-0.9s-1.6,0.3-2.3,0.9
			c-0.6,0.6-0.9,1.4-0.9,2.3s0.3,1.6,0.9,2.3c0.6,0.6,1.4,0.9,2.3,0.9s1.6-0.3,2.3-0.9c0.6-0.6,0.9-1.4,0.9-2.3S53.7,35.4,53.1,34.7
			z"/>
	</g>
</g>
<g class="st9">
	<path class="st10" d="M94.7,103.7H6.9c-3.4,0-6.1-2.7-6.1-6.1V6.8c0-3.4,2.7-6.1,6.1-6.1h87.8c3.4,0,6.1,2.7,6.1,6.1v90.8
		C100.8,101,98.1,103.7,94.7,103.7z"/>
	<path class="st11" d="M100.8,6.8c0-3.4-2.7-6.1-6.1-6.1H6.9c-3.4,0-6.1,2.7-6.1,6.1v8.4h100V6.8z"/>
	<path class="st12" d="M51.1,47.7h-0.6c-6.5,0-11.8-5.3-11.8-11.8v0c0-6.5,5.3-11.8,11.8-11.8h0.6c6.5,0,11.8,5.3,11.8,11.8v0
		C62.9,42.5,57.6,47.7,51.1,47.7z"/>
	<path class="st12" d="M59.6,95.2H42.1c-1,0-1.7-0.8-1.7-1.7v0c0-1,0.8-1.7,1.7-1.7h17.5c1,0,1.7,0.8,1.7,1.7v0
		C61.3,94.5,60.5,95.2,59.6,95.2z"/>
	<path class="st13" d="M79.6,59.2H22.1c-1,0-1.7-0.8-1.7-1.7v0c0-1,0.8-1.7,1.7-1.7h57.5c1,0,1.7,0.8,1.7,1.7v0
		C81.3,58.5,80.5,59.2,79.6,59.2z"/>
	<path class="st13" d="M70.6,66.2H31.1c-1,0-1.7-0.8-1.7-1.7v0c0-1,0.8-1.7,1.7-1.7h39.5c1,0,1.7,0.8,1.7,1.7v0
		C72.3,65.5,71.5,66.2,70.6,66.2z"/>
	<path class="st13" d="M61.6,74.2H40.1c-1,0-1.7-0.8-1.7-1.7v0c0-1,0.8-1.7,1.7-1.7h21.5c1,0,1.7,0.8,1.7,1.7v0
		C63.3,73.5,62.5,74.2,61.6,74.2z"/>
	<circle class="st14" cx="9.3" cy="8.2" r="2"/>
	<circle class="st14" cx="16.8" cy="8.2" r="2"/>
	<circle class="st14" cx="24.3" cy="8.2" r="2"/>
	<g class="st15">
		<path class="st7" d="M45,36.4c-0.2-0.2-0.2-0.6,0-0.8l0.8-0.8c0.2-0.2,0.6-0.2,0.8,0l2.6,2.6l5.6-5.6c0.2-0.2,0.6-0.2,0.8,0
			l0.8,0.8c0.2,0.2,0.2,0.6,0,0.8l-6.9,6.9c-0.2,0.2-0.6,0.2-0.8,0L45,36.4z"/>
	</g>
</g>
</svg>
