<?xml version="1.0" encoding="utf-8"?>
<!-- Generator: Adobe Illustrator 25.4.1, SVG Export Plug-In . SVG Version: 6.00 Build 0)  -->
<svg version="1.1" id="Layer_2" xmlns="http://www.w3.org/2000/svg" xmlns:xlink="http://www.w3.org/1999/xlink" x="0px" y="0px"
	 viewBox="0 0 32 32" style="enable-background:new 0 0 32 32;" xml:space="preserve">
<style type="text/css">
	.st0{display:none;}
	.st1{display:inline;fill:#1DB954;}
	.st2{opacity:0.5;fill:none;stroke:#FFA12F;stroke-width:2.5;stroke-linecap:round;stroke-miterlimit:10;}
	.st3{opacity:0.5;fill:#FFA12F;}
	.st4{fill:#FFA12F;}
	.st5{fill:none;stroke:#FFA12F;stroke-width:2;stroke-linecap:round;stroke-miterlimit:10;}
</style>
<g class="st0">
	<path class="st1" d="M8.3,29.1h15.5c2.7,0,5-1.8,5.7-4.4l1.9-6.7c0.4-1.5-0.1-3.1-1.4-4c-1.3-0.9-3-0.9-4.3,0L25,14.4
		c-0.2,0.2-0.5,0.1-0.6,0.1c-0.1,0-0.3-0.1-0.5-0.4l-4.6-9.2c-0.6-1.3-1.9-2.1-3.3-2.1s-2.7,0.8-3.3,2.1l-4.6,9.2
		c-0.1,0.3-0.4,0.4-0.5,0.4c-0.1,0-0.4,0.1-0.6-0.1L6.4,14c-1.3-0.9-3-0.9-4.3,0c-1.3,0.9-1.9,2.5-1.4,4l1.9,6.7
		C3.2,27.3,5.6,29.1,8.3,29.1z M3.8,16.4c0.1-0.1,0.2-0.1,0.4-0.1c0.1,0,0.3,0,0.4,0.1l0.6,0.5c0.9,0.6,2,0.8,3.1,0.6
		c1.1-0.3,1.9-1,2.4-2l4.6-9.2c0.2-0.4,0.5-0.4,0.7-0.4s0.5,0,0.7,0.4l4.6,9.2c0.5,1,1.4,1.7,2.4,2c1.1,0.3,2.2,0.1,3.1-0.6l0.6-0.5
		c0.4-0.3,0.7-0.1,0.8,0c0.1,0.1,0.4,0.3,0.3,0.8L26.6,24c-0.4,1.3-1.5,2.2-2.8,2.2H8.3c-1.3,0-2.5-0.9-2.8-2.2l-1.9-6.7
		C3.4,16.8,3.7,16.5,3.8,16.4z"/>
</g>
<g>
	<path class="st2" d="M21.6,25.2c-2.1,1.8-4.8,2.9-7.8,2.9C7.1,28.1,1.7,22.7,1.7,16S7.1,3.9,13.8,3.9S25.9,9.3,25.9,16
		c0,0.4,0,0.8-0.1,1.1"/>
	<polygon class="st3" points="25.9,21.5 21.5,14.9 30.3,14.9 	"/>
	<path class="st4" d="M18,22h-8c-0.6,0-1-0.4-1-1v-5c0-0.6,0.4-1,1-1h8c0.6,0,1,0.4,1,1v5C19,21.6,18.6,22,18,22z"/>
	<path class="st5" d="M16.8,12c-0.4-1.2-1.5-2-2.8-2c-1.7,0-3,1.3-3,3v3"/>
</g>
</svg>
