<?xml version="1.0" encoding="utf-8"?>
<!-- Generator: Adobe Illustrator 26.0.1, SVG Export Plug-In . SVG Version: 6.00 Build 0)  -->
<svg version="1.1" id="Layer_1" xmlns="http://www.w3.org/2000/svg" xmlns:xlink="http://www.w3.org/1999/xlink" x="0px" y="0px"
	 viewBox="0 0 191.9 206.4" style="enable-background:new 0 0 191.9 206.4;" xml:space="preserve">
<style type="text/css">
	.st0{fill:#35B7F3;}
	.st1{fill:#030047;}
	.st2{fill:#FFFFFF;}
</style>
<g>
	<path class="st0" d="M103.4,176.3c0,0-1.2,10.9-7.2,13.7c-5.9,2.8-5.8,6.4-5.8,6.4l31.3-0.3l-0.4-18L103.4,176.3z"/>
	<path class="st0" d="M89.9,196.4c0-0.2-0.1-4,6.1-6.9c5.6-2.6,6.9-13.2,6.9-13.3l0.1-0.4l18.8,1.8l0.4,18.9L90,196.8L89.9,196.4z
		 M120.8,178.5l-17-1.7c-0.3,2.1-1.9,11-7.4,13.5c-4.4,2-5.3,4.5-5.5,5.5l30.3-0.3L120.8,178.5z"/>
	<path class="st0" d="M160.2,175c0,0,2.6,10.7-2,15.3c-4.6,4.7-3.2,8-3.2,8l29.2-11.2l-6.7-16.7L160.2,175z"/>
	<path class="st0" d="M154.6,198.5c-0.1-0.1-1.5-3.7,3.2-8.5c4.4-4.4,1.8-14.8,1.8-14.9l-0.1-0.4l18.2-4.8l7,17.5l-30,11.5
		L154.6,198.5z M177.3,171l-16.5,4.4c0.4,2.1,2,11-2.2,15.3c-3.4,3.4-3.4,6.1-3.2,7.1l28.3-10.8L177.3,171z"/>
	<path class="st1" d="M138,94.6c0,0-0.4,15.9,1.3,34.3s17.5,53.6,17.5,53.6l23.2-9.8c0,0-6.6-19.5-12.3-31.6
		c-5.6-12.1-7.8-35.7-12.9-44.1L138,94.6z"/>
	<path class="st1" d="M131.2,92.5c0,0-11.3,11.1-19.1,27.8c-10.7,22.9-14,59.9-14,59.9l24.7,4.7c0,0,5.3-23.8,7.3-37.1
		c2-13.2,14.6-31.7,15.1-41.6L131.2,92.5z"/>
	<path class="st2" d="M139.9,122c-0.2-0.1-0.3-0.4-0.2-0.6l1.7-3.1l4.9-1.7c0.2-0.1,0.6,0.1,0.6,0.3c0.1,0.2-0.1,0.6-0.3,0.6
		l-4.6,1.7l-1.5,2.8c-0.1,0.2-0.2,0.2-0.4,0.2C139.9,122.2,139.8,122.2,139.9,122z"/>
	<path class="st1" d="M159.9,184.9c0.9,0.5,1.9,1,2.8,1.5c0.4,0.2,0.7-0.4,0.3-0.6c-0.9-0.5-1.9-1-2.8-1.5
		C159.9,184.1,159.6,184.6,159.9,184.9z"/>
	<path class="st1" d="M159.5,186.8l2.3,1.8c0.3,0.2,0.6-0.3,0.3-0.6c-0.7-0.6-1.5-1.2-2.3-1.8C159.5,186,159.2,186.5,159.5,186.8z"
		/>
	<path class="st1" d="M99.6,185.8l1.2,2.3c0.2,0.4,0.7,0.1,0.6-0.3c-0.4-0.8-0.8-1.5-1.2-2.3C100,185.1,99.4,185.4,99.6,185.8z"/>
	<path class="st1" d="M97.8,187.8l1.2,2.3c0.2,0.4,0.7,0.1,0.6-0.3c-0.4-0.8-0.8-1.5-1.2-2.3C98.2,187.2,97.7,187.5,97.8,187.8z"/>
	<path class="st2" d="M102.4,179.1c1-35.8,22.2-74.7,22.4-75c0.1-0.2,0.4-0.3,0.6-0.2c0.2,0.1,0.3,0.4,0.2,0.6
		c-0.2,0.4-21.3,39-22.3,74.6c0,0.2-0.2,0.4-0.4,0.4C102.6,179.5,102.4,179.3,102.4,179.1z"/>
	<path class="st2" d="M120.9,112.1c-1.3-3.4,0.2-7.9,0.2-8.1c0.1-0.2,0.4-0.4,0.6-0.3c0.2,0.1,0.4,0.4,0.3,0.6
		c0,0.1-1.4,4.4-0.2,7.5c0.1,0.2,0,0.6-0.2,0.6c-0.1,0-0.1,0-0.2,0C121.2,112.4,121,112.3,120.9,112.1z"/>
	<path class="st2" d="M104.7,33.1c1.7,0.1,5.8,1.2,9.7,8.7l0.2,0.3c0.7,1.4,1.5,2.9,2.3,4.4c-0.4,0.1-0.7,0.2-1,0.4
		c-2.3,1.2-4.9,2.6-7.4,3.9L104.7,33.1z"/>
	<path class="st1" d="M114.1,42l0.1,0.3c0.7,1.3,1.3,2.6,2,3.9c-0.2,0.1-0.4,0.1-0.6,0.2c-2.1,1.2-4.5,2.4-6.9,3.6l-3.5-16.4
		C107.1,33.9,110.5,35.5,114.1,42z M104.1,32.7l4,18.8c2.6-1.3,5.3-2.8,7.9-4.2c0.5-0.2,1-0.4,1.5-0.4c0.1,0,0.1,0,0.1,0
		c-0.9-1.8-1.8-3.6-2.7-5.3c-4.1-7.7-8.3-8.9-10.4-8.9C104.3,32.7,104.2,32.7,104.1,32.7z"/>
	<path class="st0" d="M106.2,49.5c0.5,1.2,5.1,17.4,9.2,19.2c4.8,2.1,14.1-5.1,14.1-5.1c-6.3-3.1-9.7-12.4-13.4-19.7
		C113.2,45.3,108.6,47.4,106.2,49.5z"/>
	<path class="st2" d="M135.3,38.1c4,1.7,5.8,6.7,3.9,11.3c-1.9,4.5-6.7,6.4-10.8,5.1c-5.9-1.9-5.8-6.7-3.9-11.3
		C126.4,38.7,131.2,36.4,135.3,38.1z"/>
	<path class="st1" d="M128.3,54.9c-2.3-0.8-4-2-4.8-3.8c-0.9-2.1-0.7-4.8,0.6-8.1c0.9-2.3,2.6-4.1,4.8-5.1c2.1-1,4.5-1.1,6.6-0.2
		c2.1,0.9,3.7,2.6,4.5,4.8c0.7,2.3,0.7,4.8-0.3,7c-1.5,3.6-5,5.8-8.6,5.8C130.1,55.3,129.2,55.2,128.3,54.9z M129.3,38.7
		c-2,0.9-3.5,2.6-4.4,4.7c-1.3,3-1.5,5.5-0.6,7.4c0.7,1.5,2.1,2.6,4.2,3.3c3.6,1.2,8.3-0.4,10.2-4.8c0.9-2.1,0.9-4.4,0.2-6.4
		s-2.1-3.5-3.9-4.3c-0.9-0.4-1.7-0.6-2.6-0.6C131.4,38,130.3,38.2,129.3,38.7z"/>
	<path class="st1" d="M128.5,42.8c0-0.3-0.3-0.6-0.6-0.6c-0.3,0-0.6,0.3-0.6,0.6c0,0.3,0.3,0.6,0.6,0.6
		C128.2,43.4,128.5,43.1,128.5,42.8z"/>
	<path class="st1" d="M131,42.9c0.3,0.9-0.4,2,0.2,2.7c-1.7,3.4-1.1,6.9,2.5,9.1c2.2,1,6.4-3.2,7.3-6.9c1.1-4.2-2.1-9-5.7-9.7
		c-1.2-0.6-7.8-5.1-7.8-1C127.4,38.5,130.6,41.5,131,42.9z"/>
	<path class="st2" d="M129.3,48.8c1.3,3.1,4.5,3.4,6.6,2.5c2.5-1.2,3.3-6.6-3.4-6C132.5,45.2,128,45.8,129.3,48.8z"/>
	<path class="st1" d="M132.2,48.1c1-0.6,2.3-0.2,3.1,0.7c0.2,0.3,0.7-0.1,0.4-0.4c-0.9-1.2-2.5-1.5-3.8-0.8
		C131.5,47.7,131.8,48.2,132.2,48.1z"/>
	<path class="st1" d="M124.6,45c0.7-1.2,1.5-2.1,2.5-3.1c0.3-0.2-0.1-0.7-0.4-0.4c-1,0.9-1.9,2-2.6,3.2
		C123.8,45,124.3,45.4,124.6,45z"/>
	<path class="st0" d="M119.6,104.4c11.8,1.7,39.7-6.1,39.7-6.1s-6.1-8.1-9.6-22.1s-7.3-18.5-16.9-16.4
		C112.5,64.2,119.6,104.4,119.6,104.4z"/>
	<path class="st0" d="M128,63.9l-1.6-5.9l13.1-1.5l1,4.8L128,63.9z"/>
	<path class="st1" d="M76.9,25.8c-0.2-0.1-0.3-0.4-0.2-0.6L82,14.4l10.4,5.3c0.2,0.1,0.3,0.4,0.2,0.6c-0.1,0.2-0.4,0.3-0.6,0.2
		l-9.6-4.9l-5,10c-0.1,0.1-0.2,0.2-0.4,0.2C76.9,25.9,76.9,25.9,76.9,25.8z"/>
	<path class="st2" d="M68.8,27.6l11,31.5l31-10.8l-11-31.5L68.8,27.6z"/>
	<path class="st1" d="M68.3,27.3l31.9-11.1l11.3,32.4L79.6,59.7L68.3,27.3z M99.6,17.4L69.4,27.9l10.7,30.6L110.3,48L99.6,17.4z"/>
	<path class="st1" d="M68.8,27.7l1.7,5l31-10.8l-1.7-5L68.8,27.7z"/>
	<path class="st1" d="M72,47.3l2.1-0.7l-5-14.3L67,33L72,47.3z"/>
	<path class="st1" d="M81.5,43.9l-0.6-1.7c-0.4-1,0.2-2.1,1.2-2.5l11.3-3.9c1-0.4,2.1,0.2,2.5,1.2l0.6,1.7c0.4,1-0.2,2.1-1.2,2.5
		L84,45.1C82.9,45.5,81.8,44.9,81.5,43.9z"/>
	<path class="st1" d="M80.2,37.1c-0.1-0.2,0.1-0.6,0.3-0.6l11.3-3.9c0.2-0.1,0.6,0.1,0.6,0.3s-0.1,0.6-0.3,0.6l-11.3,3.9
		c0,0-0.1,0-0.1,0C80.5,37.4,80.4,37.4,80.2,37.1z"/>
	<path class="st1" d="M79.4,34.8c-0.1-0.2,0.1-0.6,0.3-0.6l11.3-3.9c0.2-0.1,0.6,0.1,0.6,0.3c0.1,0.2-0.1,0.6-0.3,0.6l-11.3,3.9
		c0,0-0.1,0-0.1,0C79.7,35.1,79.6,35,79.4,34.8z"/>
	<path class="st0" d="M75.1,23.1c0-0.8-0.6-1.4-1.4-1.4s-1.4,0.6-1.4,1.4c0,0.8,0.6,1.4,1.4,1.4S75.1,23.9,75.1,23.1z"/>
	<path class="st0" d="M71.9,23.1c0-1,0.9-1.8,1.8-1.8s1.8,0.9,1.8,1.8s-0.8,1.8-1.8,1.8S71.9,24.1,71.9,23.1z M72.8,23.1
		c0,0.5,0.4,0.9,0.9,0.9c0.5,0,0.9-0.4,0.9-0.9s-0.4-0.9-0.9-0.9C73.2,22.2,72.8,22.6,72.8,23.1z"/>
	<path class="st0" d="M71.2,24.4c0-0.8-0.6-1.4-1.4-1.4s-1.4,0.6-1.4,1.4c0,0.8,0.6,1.4,1.4,1.4S71.2,25.2,71.2,24.4z"/>
	<path class="st0" d="M67.9,24.4c0-1,0.9-1.8,1.8-1.8s1.8,0.9,1.8,1.8c0,1-0.8,1.8-1.8,1.8S67.9,25.4,67.9,24.4z M68.8,24.4
		c0,0.5,0.4,0.9,0.9,0.9c0.5,0,0.9-0.4,0.9-0.9s-0.4-0.9-0.9-0.9C69.2,23.5,68.8,23.9,68.8,24.4z"/>
	<path class="st2" d="M110.9,39.5c-2.5-4.4-5.2-6.9-6.4-5.8c-1.2,1,1.8,3.9,1.8,3.9s-0.1,6.4,4.2,8.9"/>
	<path class="st1" d="M110.3,46.9c-4.1-2.4-4.5-8-4.5-9.1c-0.6-0.5-2.2-2.2-2.1-3.4c0-0.4,0.1-0.7,0.4-0.9c0.3-0.3,0.8-0.4,1.3-0.3
		c1.7,0.3,3.9,2.7,5.8,6.3c0.1,0.2,0.1,0.5-0.2,0.6c-0.2,0.1-0.5,0.1-0.6-0.2c-2.1-3.7-4.1-5.6-5.2-5.8c-0.2,0-0.4,0-0.6,0.1
		c-0.1,0.1-0.1,0.1-0.1,0.2c-0.1,0.7,1.2,2.1,2,2.9l0.1,0.1v0.2c0,0.1,0,6.2,4,8.6c0.2,0.1,0.3,0.4,0.2,0.6
		c-0.1,0.2-0.2,0.2-0.4,0.2C110.4,46.9,110.3,46.9,110.3,46.9z"/>
	<path class="st2" d="M74.4,56.6c1,1.8,2.3,6.3,8.4,7.7c1.4,0.4,2.6,1.7,4,3.6c2.5-3.6,5.3-6.9,8.3-10.1c-3.1-3.7-6.3-7.8-9.9-10.5
		c-3-2.3-4.6-1.7-4.2-0.4c0.2,1,2.1,3.1,2.1,3.1l0.3,2c0,0-3.6-0.4-5.6-3.1c-2.1-2.6-3.2-0.9-3.1,0c0.1,0.9,0,1.8,0,1.8
		c-0.7,0.4-0.7,1.9-0.2,2.9C74.5,53.7,73.4,54.8,74.4,56.6z"/>
	<path class="st1" d="M86.5,68.1c-1.1-1.6-2.4-3.1-3.7-3.4c-5.3-1.3-7.1-4.8-8.2-7c-0.2-0.4-0.4-0.7-0.5-0.9
		c-0.9-1.6-0.5-2.7-0.2-3.2c-0.4-1-0.4-2.5,0.3-3.1c0.1-0.3,0.1-0.9,0-1.5c-0.1-0.7,0.2-1.5,0.9-1.8c0.6-0.2,1.6-0.2,2.9,1.5
		c1.4,1.8,3.7,2.5,4.7,2.8l-0.2-1.2c-0.4-0.4-1.8-2.2-2.1-3.1c-0.2-0.6,0-1.2,0.4-1.5c0.9-0.6,2.5-0.1,4.5,1.4
		c3.1,2.3,5.9,5.7,8.6,8.9c0.4,0.6,0.9,1,1.3,1.6l0.2,0.3l-0.3,0.3c-3.2,3.4-5.9,6.7-8.3,10l-0.4,0.6L86.5,68.1z M93.4,56.6
		c-2.7-3.2-5.5-6.6-8.5-8.8c-2-1.5-3.1-1.5-3.4-1.3c-0.1,0.1-0.1,0.3-0.1,0.5c0.2,0.6,1.3,2.1,2,2.9l0.1,0.1l0.4,2.7l-0.6-0.1
		c-0.1-0.1-3.7-0.5-5.9-3.2c-0.7-0.9-1.4-1.3-1.8-1.2C75.1,48.2,75,48.7,75,49c0.2,1,0,1.9,0,2L75,51.2l-0.2,0.1
		c-0.3,0.1-0.4,1.3,0,2.3l0.1,0.2l-0.2,0.2c0,0-0.7,0.9,0.1,2.3c0.2,0.2,0.4,0.6,0.6,1c1,2.1,2.6,5.3,7.5,6.5
		c1.3,0.3,2.6,1.5,3.9,3.2c2.2-3.1,4.8-6.1,7.7-9.3C94.2,57.4,93.8,57,93.4,56.6z"/>
	<path class="st0" d="M84.8,65.5c4.2,3.9,9.9,19.3,22.6,20.3c14.6,1.2,27.2-7,27.2-7l-2.1-17.8c-8.7-1.4-22.6,6.3-28.4,4.5
		c-3.9-1.1-7.8-6.3-12.1-11.3C88.6,57.4,86.3,61.2,84.8,65.5z"/>
	<path class="st0" d="M107.3,86.2c-9.5-0.8-15.1-9.3-19.1-15.5c-1.4-2.1-2.6-4-3.7-5l-0.2-0.2l0.1-0.3c1.7-4.6,4-8.4,7.3-11.5
		l0.4-0.3l0.3,0.4c0.6,0.7,1.2,1.4,1.8,2.1c3.6,4.2,6.9,8.2,10.1,9.1c2.7,0.8,7.4-0.6,12.3-2c5.6-1.6,11.5-3.3,16.1-2.5l0.4,0.1
		l2.1,18.4l-0.2,0.2c-0.1,0.1-11.3,7.2-24.6,7.2C109.3,86.4,108.3,86.4,107.3,86.2z M132.1,61.3c-4.4-0.6-10.2,1.1-15.4,2.6
		c-5.1,1.4-9.9,2.8-12.8,2c-3.4-1-6.9-5.1-10.5-9.4c-0.5-0.6-1-1.2-1.5-1.7c-2.9,2.9-5.1,6.4-6.6,10.5c1.1,1.1,2.3,2.9,3.6,5
		c4,6.1,9.4,14.3,18.4,15.1c13.2,1.1,24.9-5.7,26.7-6.8L132.1,61.3z"/>
	<path class="st2" d="M112.4,64.6c-0.1-0.2,0.1-0.5,0.4-0.6c1-0.2,2.1-0.7,3.2-1.1c2.3-0.9,5-1.9,8.7-2.1c0.2,0,0.5,0.2,0.5,0.4
		s-0.2,0.5-0.4,0.5c-3.6,0.2-6.2,1.2-8.4,2c-1.2,0.5-2.3,0.9-3.4,1.2c-0.1,0-0.1,0-0.1,0C112.6,65,112.4,64.8,112.4,64.6z"/>
	<path class="st1" d="M120.5,84.3c-0.1-0.2,0-0.5,0.2-0.6c0.1-0.1,3.1-1.4,6.3-1.3c0.2,0,0.4,0.2,0.4,0.5s-0.2,0.4-0.4,0.4
		c-3-0.1-5.9,1.3-5.9,1.3c-0.1,0.1-0.1,0.1-0.2,0.1C120.8,84.6,120.6,84.5,120.5,84.3z"/>
	<path class="st1" d="M74.9,50.4c0.6,2,2,3.6,4,4.5c0.4,0.1,0.7-0.4,0.3-0.6c-1.8-0.8-3.2-2.3-3.7-4.1
		C75.3,49.8,74.7,49.9,74.9,50.4z"/>
	<path class="st1" d="M74.8,54.5c0.6,1.4,1.6,2.6,3,3.3c0.4,0.2,0.7-0.4,0.3-0.6c-1.2-0.6-2.1-1.7-2.7-2.9
		C75.3,54,74.7,54.2,74.8,54.5z"/>
	<path class="st1" d="M39.4,84.5c-0.2-0.2-0.1-0.5,0.1-0.7l12-9.6l11.2,9.6c0.2,0.2,0.2,0.5,0.1,0.7c-0.2,0.2-0.5,0.2-0.7,0.1
		l-10.5-9.1L40,84.5c-0.1,0.1-0.2,0.1-0.3,0.1C39.6,84.6,39.5,84.6,39.4,84.5z"/>
	<path class="st2" d="M27.9,121.8H74V83.5H27.9V121.8z"/>
	<path class="st1" d="M27.4,83h47.1v39.2H27.4V83z M73.6,84H28.3v37.3h45.2V84z"/>
	<path class="st1" d="M27.9,108.1h22.3C51.9,97.9,62.4,94.4,74,95.9v25.9H27.9V108.1L27.9,108.1z"/>
	<path class="st1" d="M21.4,17.6c-0.2-0.2-0.1-0.5,0.1-0.7l12-9.6L44.6,17c0.2,0.2,0.2,0.5,0.1,0.7c-0.2,0.2-0.5,0.2-0.7,0.1
		L33.4,8.6l-11.3,9.1c-0.1,0.1-0.2,0.1-0.3,0.1C21.6,17.8,21.5,17.8,21.4,17.6z"/>
	<path class="st2" d="M7.6,58.9h51.9v-43H7.6V58.9z"/>
	<path class="st1" d="M7.1,15.4h52.8v43.9H7.1V15.4z M59,16.3H8v42.1H59V16.3z"/>
	<path class="st2" d="M59.5,29.3V42L38.8,53.7l-5.3-31L59.5,29.3z"/>
	<path class="st1" d="M32.9,22.1l27,6.9v13.3L38.4,54.4L32.9,22.1z M59,29.7l-24.9-6.3L39.2,53L59,41.7V29.7z"/>
	<path class="st1" d="M23.3,47.1l6.6,3.8l-4.6,8h-8.8L23.3,47.1z"/>
	<path class="st1" d="M65.6,77c-0.2-0.1-0.3-0.4-0.2-0.6l3.4-6.1c0.1-0.2,0.4-0.3,0.6-0.2c0.2,0.1,0.3,0.4,0.2,0.6l-3.4,6.1
		c-0.1,0.2-0.2,0.2-0.4,0.2C65.7,77.1,65.6,77.1,65.6,77z"/>
	<path class="st1" d="M70.4,75.7l-6.1-3.4c-0.2-0.1-0.3-0.4-0.2-0.6c0.1-0.2,0.4-0.3,0.6-0.2l6.1,3.4c0.2,0.1,0.3,0.4,0.2,0.6
		c-0.1,0.2-0.2,0.2-0.4,0.2C70.6,75.8,70.4,75.7,70.4,75.7z"/>
	<path class="st1" d="M81.7,96.5c0-0.3,0.2-0.5,0.5-0.5h9.2c0.3,0,0.5,0.2,0.5,0.5S91.6,97,91.4,97h-9.2C82,97,81.7,96.8,81.7,96.5z
		"/>
	<path class="st1" d="M86.6,104.1l-4.6-2.3c-0.2-0.1-0.3-0.4-0.2-0.6c0.1-0.2,0.4-0.3,0.6-0.2l4.6,2.3c0.2,0.1,0.3,0.4,0.2,0.6
		c-0.1,0.1-0.2,0.2-0.4,0.2C86.7,104.1,86.6,104.1,86.6,104.1z"/>
</g>
</svg>
