<?xml version="1.0" encoding="utf-8"?>
<!-- Generator: Adobe Illustrator 25.4.1, SVG Export Plug-In . SVG Version: 6.00 Build 0)  -->
<svg version="1.1" id="Layer_1" xmlns="http://www.w3.org/2000/svg" xmlns:xlink="http://www.w3.org/1999/xlink" x="0px" y="0px"
	 viewBox="0 0 238 208" style="enable-background:new 0 0 238 208;" xml:space="preserve">
<style type="text/css">
	.st0{fill:#21A366;}
	.st1{fill-rule:evenodd;clip-rule:evenodd;fill:#107C41;}
	.st2{fill:#33C481;}
	.st3{fill:#185C37;}
	.st4{fill-opacity:9.411800e-02;}
	.st5{fill-opacity:0.2;}
	.st6{fill:#107C41;}
	.st7{fill:#FFFFFF;}
	.st8{fill:none;}
</style>
<g>
	<path class="st0" d="M146.5,7.8H73.2c-5,0-9.2,4.1-9.2,9.2v39l82.5,48.1l41.2,17.4L229,104V55.9L146.5,7.8z"/>
	<path class="st1" d="M64,55.9h82.5V104H64V55.9z"/>
	<path class="st2" d="M219.8,7.8h-73.3v48.1H229v-39C229,11.9,224.9,7.8,219.8,7.8L219.8,7.8z"/>
	<path class="st3" d="M146.5,104H64v87.1c0,5,4.1,9.2,9.2,9.2h146.7c5,0,9.2-4.1,9.2-9.2v-39L146.5,104z"/>
	<path class="st1" d="M146.5,104H229v48.1h-82.5V104z"/>
	<g>
		<path class="st4" d="M123.6,42.1H64v130.6h59.6c5,0,9.2-4.1,9.2-9.2V51.3C132.7,46.3,128.6,42.1,123.6,42.1L123.6,42.1z"/>
		<g>
			<path class="st5" d="M116.7,49H64v130.6h52.7c5,0,9.2-4.1,9.2-9.2V58.2C125.9,53.1,121.7,49,116.7,49L116.7,49z"/>
			<path class="st5" d="M116.7,49H64v116.9h52.7c5,0,9.2-4.1,9.2-9.2V58.2C125.9,53.1,121.7,49,116.7,49L116.7,49z"/>
			<path class="st5" d="M109.8,49H64v116.9h45.8c5,0,9.2-4.1,9.2-9.2V58.2C119,53.1,114.9,49,109.8,49L109.8,49z"/>
		</g>
		<path class="st6" d="M18.2,49h91.7c5,0,9.2,4.1,9.2,9.2v91.7c0,5-4.1,9.2-9.2,9.2H18.2c-5,0-9.2-4.1-9.2-9.2V58.2
			C9,53.1,13.1,49,18.2,49L18.2,49z"/>
		<path class="st7" d="M33.3,138.4l22.2-34.5L35.2,69.6h16.4l11.1,21.9c1,2.1,1.7,3.6,2.1,4.7h0.1c0.7-1.7,1.5-3.3,2.3-4.8
			l11.9-21.7h15.1l-20.9,34.1l21.4,34.7h-16l-12.8-24.1c-0.6-1-1.1-2.1-1.5-3.2h-0.2c-0.4,1.1-0.9,2.1-1.5,3.1l-13.2,24.2
			L33.3,138.4z"/>
	</g>
	<path class="st8" d="M9-6h220v220H9V-6z"/>
</g>
</svg>
