<?xml version="1.0" encoding="utf-8"?>
<!-- Generator: Adobe Illustrator 25.4.1, SVG Export Plug-In . SVG Version: 6.00 Build 0)  -->
<svg version="1.1" id="Layer_1" xmlns="http://www.w3.org/2000/svg" xmlns:xlink="http://www.w3.org/1999/xlink" x="0px" y="0px"
	 viewBox="0 0 22.4 20" style="enable-background:new 0 0 22.4 20;" xml:space="preserve">
<style type="text/css">
	.st0{fill:#999999;}
</style>
<path class="st0" d="M13.9,19.4H8.5c-0.4,0-0.7-0.3-0.7-0.7v-10C7.8,8.3,8.1,8,8.5,8h5.4c0.4,0,0.7,0.3,0.7,0.7v10
	C14.5,19.1,14.2,19.4,13.9,19.4z M9.2,18h4V9.3h-4V18z"/>
<path class="st0" d="M11.2,17c-0.6,0-1-0.4-1-1c0-0.6,0.4-1,1-1c0.6,0,1,0.4,1,1C12.2,16.6,11.7,17,11.2,17z M11.2,15.7
	c-0.2,0-0.3,0.1-0.3,0.3c0,0.2,0.1,0.3,0.3,0.3s0.3-0.1,0.3-0.3C11.5,15.8,11.4,15.7,11.2,15.7z"/>
<path class="st0" d="M5.2,16c-2.6,0-4.7-2.1-4.7-4.7s2.1-4.7,4.7-4.7c0.4,0,0.7,0.3,0.7,0.7C5.8,7.7,5.5,8,5.2,8
	c-1.8,0-3.3,1.5-3.3,3.3s1.5,3.3,3.3,3.3c0.4,0,0.7,0.3,0.7,0.7S5.5,16,5.2,16z"/>
<path class="st0" d="M17.2,16c-0.4,0-0.7-0.3-0.7-0.7s0.3-0.7,0.7-0.7c1.8,0,3.3-1.5,3.3-3.3S19,8,17.2,8c-0.4,0-0.7-0.3-0.7-0.7
	c0-0.4,0.3-0.7,0.7-0.7c2.6,0,4.7,2.1,4.7,4.7S19.8,16,17.2,16z"/>
<path class="st0" d="M17.2,8c-0.4,0-0.7-0.3-0.7-0.7c0-3-2.4-5.4-5.4-5.4S5.8,4.4,5.8,7.3C5.8,7.7,5.5,8,5.2,8S4.5,7.7,4.5,7.3
	c0-3.7,3-6.7,6.7-6.7s6.7,3,6.7,6.7C17.9,7.7,17.6,8,17.2,8z"/>
<path class="st0" d="M6.5,16H5.2c-0.4,0-0.7-0.3-0.7-0.7s0.3-0.7,0.7-0.7h1.3c0.4,0,0.7,0.3,0.7,0.7S6.9,16,6.5,16z"/>
<path class="st0" d="M17.2,16h-1.3c-0.4,0-0.7-0.3-0.7-0.7s0.3-0.7,0.7-0.7h1.3c0.4,0,0.7,0.3,0.7,0.7S17.6,16,17.2,16z"/>
</svg>
