<?xml version="1.0" encoding="utf-8"?>
<!-- Generator: Adobe Illustrator 26.0.2, SVG Export Plug-In . SVG Version: 6.00 Build 0)  -->
<svg version="1.1" id="Layer_1" xmlns="http://www.w3.org/2000/svg" xmlns:xlink="http://www.w3.org/1999/xlink" x="0px" y="0px"
	 viewBox="0 0 24 24" style="enable-background:new 0 0 24 24;" xml:space="preserve">
<style type="text/css">
	.st0{display:none;}
	.st1{display:inline;fill:none;stroke:#999999;stroke-width:1.5;stroke-linecap:round;stroke-linejoin:round;}
	.st2{fill:none;stroke:#999999;stroke-width:1.5;stroke-linecap:round;stroke-linejoin:round;}
</style>
<g class="st0">
	<path class="st1" d="M20.2,9.8H3.8c-1.7,0-3-1.3-3-3V3.9c0-1.6,1.4-3,3-3h16.4c1.7,0,3,1.3,3,3v2.9C23.2,8.4,21.8,9.8,20.2,9.8z"/>
	<path class="st1" d="M20.2,23.1H3.8c-1.7,0-3-1.3-3-3v-2.9c0-1.6,1.4-3,3-3h16.4c1.7,0,3,1.3,3,3v2.9
		C23.2,21.7,21.8,23.1,20.2,23.1z"/>
	<path class="st1" d="M5.3,4.3v2.2"/>
	<path class="st1" d="M9.8,4.3v2.2"/>
	<path class="st1" d="M5.3,17.5v2.2"/>
	<path class="st1" d="M9.8,17.5v2.2"/>
	<path class="st1" d="M14.2,5.4h4.5"/>
	<path class="st1" d="M14.2,18.6h4.5"/>
</g>
<g>
	<path class="st2" d="M1.1,8.2V7.1c0-3.3,2.2-5.5,5.5-5.5h10.9c3.3,0,5.5,2.2,5.5,5.5v8.7c0,3.3-2.2,5.5-5.5,5.5h-1.1"/>
	<path class="st2" d="M2.9,11.1c5,0.6,8.7,4.4,9.4,9.4"/>
	<path class="st2" d="M1.8,14.8c3.7,0.5,6.4,3.2,6.9,6.9"/>
	<path class="st2" d="M1.1,18.9c1.8,0.2,3.2,1.6,3.4,3.4"/>
</g>
</svg>
