<?xml version="1.0" encoding="utf-8"?>
<!-- Generator: Adobe Illustrator 26.0.1, SVG Export Plug-In . SVG Version: 6.00 Build 0)  -->
<svg version="1.1" id="Layer_1" xmlns="http://www.w3.org/2000/svg" xmlns:xlink="http://www.w3.org/1999/xlink" x="0px" y="0px"
	 viewBox="0 0 76.5 54.7" style="enable-background:new 0 0 76.5 54.7;" xml:space="preserve">
<style type="text/css">
	.st0{display:none;}
	.st1{display:inline;fill:#35B7F3;}
	.st2{fill:#35B7F3;}
</style>
<g class="st0">
	<path class="st1" d="M40.9,29.8c-1.3,1.2-3.4,1.2-4.7,0L6.6,2.8c1.2-0.8,2.5-1.2,4-1.2h56c1.4,0,2.8,0.4,4,1.2L40.9,29.8z"/>
</g>
<g>
	<path class="st2" d="M40.9,29.8c-1.3,1.2-3.4,1.2-4.7,0L6.6,2.8c1.2-0.8,2.5-1.2,4-1.2h56c1.4,0,2.8,0.4,4,1.2L40.9,29.8z"/>
	<path class="st2" d="M33.6,32.8L3.2,5.1v37.6c0,5.8,4.7,10.5,10.5,10.5h24.5V34.5C36.5,34.5,34.9,33.9,33.6,32.8z"/>
</g>
<g class="st0">
	<path class="st1" d="M41.9,29.8c-1.3,1.2-3.4,1.2-4.7,0L7.6,2.8c1.2-0.8,2.5-1.2,4-1.2h56c1.4,0,2.8,0.4,4,1.2L41.9,29.8z"/>
	<path class="st1" d="M34.6,32.8L4.2,5.1v37.6c0,5.8,4.7,10.5,10.5,10.5h24.5V34.5C37.5,34.5,35.9,33.9,34.6,32.8z"/>
	<path class="st1" d="M43.9,32.8L74.2,5.1v37.6c0,5.8-4.7,10.5-10.5,10.5H39.2V34.5C40.9,34.5,42.6,33.9,43.9,32.8z"/>
</g>
</svg>
