<svg width="556" height="406" viewBox="0 0 556 406" fill="none" xmlns="http://www.w3.org/2000/svg">
<path d="M544.5 403.6H8.2C4.8 403.6 2 400.8 2 397.4V82.7C2 79.3 4.8 76.5 8.2 76.5H544.5C547.9 76.5 550.7 79.3 550.7 82.7V397.4C550.7 400.8 547.9 403.6 544.5 403.6Z" fill="#EDEDF7"/>
<path opacity="0.15" d="M20.7 99.4C23.13 99.4 25.1 97.4301 25.1 95C25.1 92.57 23.13 90.6 20.7 90.6C18.2699 90.6 16.3 92.57 16.3 95C16.3 97.4301 18.2699 99.4 20.7 99.4Z" fill="#030047"/>
<path opacity="0.15" d="M37 99.4C39.4301 99.4 41.4 97.4301 41.4 95C41.4 92.57 39.4301 90.6 37 90.6C34.57 90.6 32.6 92.57 32.6 95C32.6 97.4301 34.57 99.4 37 99.4Z" fill="#030047"/>
<path opacity="0.15" d="M53.3 99.4C55.73 99.4 57.7 97.4301 57.7 95C57.7 92.57 55.73 90.6 53.3 90.6C50.8699 90.6 48.9 92.57 48.9 95C48.9 97.4301 50.8699 99.4 53.3 99.4Z" fill="#030047"/>
<path d="M115.3 300.4H35.7C31 300.4 27.1 296.5 27.1 291.8V177.3C27.1 172.6 31 168.7 35.7 168.7H115.3C120 168.7 123.9 172.6 123.9 177.3V291.8C124 296.5 120.1 300.4 115.3 300.4Z" fill="white"/>
<path d="M230.1 300.4H150.5C145.8 300.4 141.9 296.5 141.9 291.8V177.3C141.9 172.6 145.8 168.7 150.5 168.7H230.1C234.8 168.7 238.7 172.6 238.7 177.3V291.8C238.7 296.5 234.8 300.4 230.1 300.4Z" fill="white"/>
<path d="M356.2 300.4H226.9C222.2 300.4 218.3 296.5 218.3 291.8V177.3C218.3 172.6 222.2 168.7 226.9 168.7H356.2C360.9 168.7 364.8 172.6 364.8 177.3V291.8C364.9 296.5 361 300.4 356.2 300.4Z" fill="white"/>
<path d="M522.8 239.6L542.4 263.8L498.2 304.6C498.2 304.6 493 298.9 496.4 293.1C498.1 290.1 499.7 284.7 500 278.9C500 278.5 500 278.1 500.1 277.7C500.2 276.2 500.2 274.8 500.1 273.3C500.1 272.9 500 272.5 500 272.1C499.6 268.8 498.8 265.7 497.3 263L522.8 239.6Z" fill="#030047"/>
<path d="M511.5 271.8C507.7 272.3 503.9 272.9 500.1 273.5C500.1 273.1 500 272.7 500 272.3C503.8 271.8 507.5 271.2 511.3 270.7C512 270.5 512.2 271.7 511.5 271.8Z" fill="white"/>
<path d="M510.3 278.6C506.9 278.7 503.4 278.8 500 279C500 278.6 500 278.2 500.1 277.8C503.5 277.7 507 277.6 510.4 277.4C511.2 277.4 511.2 278.6 510.3 278.6Z" fill="white"/>
<path d="M437.9 269.9L435.8 301.1H375.6C375.6 301.1 375.6 293.5 382 291.4C385.3 290.4 390.1 287.4 394.4 283.5C394.6 283.3 395 283 395.2 282.7C396.2 281.7 397.3 280.6 398.1 279.5C398.3 279.1 398.6 278.9 398.8 278.5C400.7 275.8 402.3 272.9 402.9 270H437.8V269.9H437.9Z" fill="#030047"/>
<path d="M502.3 197.2C496.1 175.4 486.1 114.4 486.1 114.4L451.3 122.4C450.3 118.9 449.6 116.7 449.6 116.7L414.4 130.2C414.4 158.6 398.6 271.5 398.6 271.5L444.2 277.9C444.2 277.9 449.4 228.6 452.8 190.9C465.6 234.8 487.3 266.8 496.1 272.2L529.3 244.9C529.5 244.8 508.5 219 502.3 197.2Z" fill="white"/>
<path d="M445.1 278.7L397.6 272L397.7 271.2C397.8 270.1 413.5 157.9 413.5 130V129.4L450.1 115.3L450.3 116.3C450.3 116.3 450.9 118.2 451.8 121.3L486.7 113.3L486.8 114.3C486.9 114.9 497 175.5 503 197.1C509.1 218.4 529.8 244.1 529.9 244.4L530.5 245.1L496.1 273.3L495.5 272.9C487.1 267.8 466.4 237.9 453.2 195.6C449.8 232.2 445.1 277.5 445 278L445.1 278.7ZM399.8 270.6L443.6 276.7C444.3 269.7 448.9 225.1 452.1 190.6L452.6 185.9L453.9 190.5C466.6 233.8 487.5 264.8 496.2 270.9L528.2 244.6C524.8 240.2 507 217.1 501.4 197.3C495.7 177.2 486.6 123.1 485.3 115.4L450.6 123.3L450.4 122.5C449.8 120.3 449.3 118.7 449.1 117.8L415.4 130.6C415.2 158.4 401.2 259.9 399.8 270.6Z" fill="#030047"/>
<path d="M476.6 123.5C476.2 123.5 475.9 123.3 475.8 122.9C475.3 121.8 474.8 120.7 474.3 119.6C474.1 119.1 474.3 118.6 474.8 118.4C475.3 118.2 475.8 118.4 476 118.9C476.5 120 477 121.1 477.5 122.3C477.7 122.8 477.5 123.3 477 123.5C476.9 123.5 476.7 123.5 476.6 123.5Z" fill="#030047"/>
<path d="M511 240.9C510.6 240.9 510.4 240.8 510.2 240.4C509 238.3 507.8 236 506.6 233.6C506.4 233.1 506.6 232.6 507 232.4C507.5 232.2 508 232.4 508.2 232.8C509.4 235.2 510.6 237.4 511.8 239.5C512 240 511.9 240.5 511.4 240.7C511.4 240.9 511.2 240.9 511 240.9ZM504 227.2C503.6 227.2 503.3 227 503.2 226.7C502.1 224.4 501.1 222.1 500 219.7C499.8 219.2 500 218.7 500.5 218.5C501 218.3 501.5 218.5 501.7 219C502.7 221.4 503.8 223.7 504.7 226C504.9 226.5 504.7 227 504.2 227.2C504.4 227.2 504.2 227.2 504 227.2ZM498.2 213C497.8 213 497.5 212.8 497.4 212.4C496.6 210.1 495.8 207.7 495 205C494.9 204.5 495.1 204 495.6 203.9C496.1 203.8 496.6 204 496.7 204.5C497.4 207 498.3 209.6 499 211.8C499.1 212.3 498.9 212.8 498.5 213C498.3 213 498.3 213 498.2 213ZM493.8 198.2C493.4 198.2 493.1 198 493 197.5C492.4 195.2 491.9 192.7 491.3 190C491.2 189.5 491.5 189 492 188.9C492.5 188.8 493 189.1 493.1 189.6C493.7 192.3 494.2 194.8 494.8 197.1C494.9 197.6 494.6 198.1 494.1 198.2C494.1 198.2 493.9 198.2 493.8 198.2ZM490.8 183.2C490.3 183.2 490 182.8 490 182.5C489.5 180 489 177.5 488.7 175C488.6 174.5 488.9 174 489.4 173.9C489.9 173.8 490.4 174.1 490.5 174.6C491 177.1 491.3 179.7 491.8 182.1C491.9 182.6 491.6 183.1 491.1 183.2C490.9 183.2 490.8 183.2 490.8 183.2ZM488 168.1C487.5 168.1 487.2 167.7 487.2 167.4C486.7 164.9 486.2 162.3 485.9 159.9C485.8 159.4 486.1 158.9 486.6 158.8C487.1 158.7 487.6 159 487.7 159.5C488.2 162 488.7 164.6 489 167.1C489.1 167.6 488.8 168.1 488.3 168.2C488.1 168.1 488.1 168.1 488 168.1ZM485.1 152.9C484.7 152.9 484.3 152.7 484.3 152.2C483.7 149.5 483.2 147.1 482.6 144.7C482.5 144.2 482.8 143.7 483.3 143.6C483.8 143.5 484.3 143.8 484.4 144.3C485 146.7 485.5 149.1 486.1 151.8C486.2 152.3 485.9 152.8 485.4 152.9C485.2 152.9 485.2 152.9 485.1 152.9ZM481.6 138C481.2 138 480.9 137.8 480.8 137.4C480.1 134.9 479.3 132.4 478.5 130.1C478.4 129.6 478.6 129.1 479.1 128.9C479.6 128.8 480.1 129 480.3 129.5C481 131.8 481.9 134.3 482.6 136.9C482.7 137.4 482.5 137.9 482 138C481.7 138 481.7 138 481.6 138Z" fill="#030047"/>
<path d="M517.3 250.4C517.1 250.4 516.8 250.3 516.6 250.2C516.6 250.2 515.8 249.2 514.3 247.2C514.1 246.8 514.1 246.2 514.5 246C514.9 245.8 515.5 245.8 515.7 246.2C517 248.1 517.8 249 517.9 249C518.3 249.4 518.1 250 517.8 250.3C517.8 250.2 517.6 250.4 517.3 250.4Z" fill="#030047"/>
<path d="M407.8 285.9C404.6 283.7 401.5 281.5 398.3 279.4C398.5 279 398.8 278.8 399 278.4C402.2 280.6 405.3 282.8 408.3 284.8C409.1 285.3 408.5 286.4 407.8 285.9Z" fill="white"/>
<path d="M402.4 290.1C399.9 287.8 397.2 285.6 394.5 283.3C394.7 283.1 395.1 282.8 395.3 282.5C397.8 284.8 400.5 287 403.2 289.2C403.9 289.8 403 290.6 402.4 290.1Z" fill="white"/>
<path d="M452 182.6C451.6 182.6 451.3 182.4 451.2 182C448.7 175.8 445.7 149.6 445.1 144.9C443.9 144.8 440.9 144.3 435.4 143.2C434.9 143.1 434.6 142.6 434.7 142.1C434.8 141.6 435.3 141.3 435.8 141.4C443.2 142.9 446 143.2 446 143.2L446.7 143.3L446.8 144C446.8 144.4 450.2 174.9 452.7 181.3C452.9 181.8 452.7 182.3 452.2 182.5C452.3 182.6 452.1 182.6 452 182.6Z" fill="#030047"/>
<path d="M415.4 46C384.7 59.2 356.3 75.8 341.7 100.1C339.4 103.9 337.6 107.9 336.1 111.7C323.7 121.9 328.3 140.3 332.2 141.4C332.4 141.5 332.7 141.5 332.9 141.4C334.6 147.8 338.6 151 344.4 148.1C344.4 148.1 349.9 148.8 352.8 143.4C352.8 143.4 357.9 145.7 359.7 141.5C360.5 139.6 357.8 133.6 359.7 125.9C362.1 116.4 370.6 104.4 386.6 94.4C415.6 76.2 424.1 74.9 424.1 74.9L415.4 46Z" fill="white"/>
<path d="M340.4 150C339.4 150 338.5 149.8 337.6 149.4C335.3 148.3 333.5 145.9 332.3 142.2C332.2 142.2 332.1 142.2 332.1 142.1C330 141.5 328.6 138.1 327.9 135.1C326.3 127.9 327.4 117.8 335.4 111.1C336.9 107 338.8 103.1 341 99.5C353.5 78.8 377 61.4 415.2 45.1L416.2 44.7L425.4 75.5L424.4 75.6C424.3 75.6 415.7 77.3 387.3 95C373.5 103.6 363.5 115.2 360.9 125.9C359.7 130.5 360.3 134.5 360.8 137.4C361 139.3 361.3 140.7 360.9 141.6C360.3 142.9 359.4 143.9 358.1 144.4C356.4 145 354.6 144.6 353.5 144.3C350.7 148.8 346.1 148.9 344.9 148.8C343.2 149.8 341.7 150 340.4 150ZM333.7 140.4L333.9 141.1C334.9 144.5 336.3 146.8 338.4 147.8C340 148.5 341.9 148.4 344.1 147.3L344.3 147.2H344.5C344.7 147.2 349.5 147.7 351.9 143L352.3 142.3L353 142.7C353 142.7 355.2 143.7 357 143.1C357.7 142.9 358.3 142.3 358.7 141.3C358.9 140.8 358.7 139.5 358.5 138.1C358 135.2 357.4 130.8 358.6 125.9C361.5 114.6 371.4 102.9 385.9 93.9C409.7 79 419.7 75.4 422.6 74.5L414.5 47.6C377.3 63.7 354.3 80.7 342.1 100.9C339.9 104.5 338.1 108.4 336.6 112.4L336.5 112.6L336.3 112.7C328.8 118.9 327.8 128.7 329.1 135.1C329.9 138.9 331.3 140.6 332 140.8C332.1 140.8 332.2 140.8 332.4 140.8L333.7 140.4Z" fill="#030047"/>
<path d="M397.7 87.6C417.8 75.8 424 74.7 424 74.7L415.4 45.9C405 50.4 394.9 55.2 385.5 60.7C389.3 69.8 393.5 78.7 397.7 87.6Z" fill="#5F5FFF"/>
<path d="M397.3 88.9L396.8 88.1C392.4 78.9 388.3 69.8 384.6 61.2L384.2 60.5L384.9 60.1C393.6 55.1 403.4 50.3 415 45.3L416 44.9L425.2 75.7L424.2 75.8C424.2 75.8 417.8 77 398.3 88.5L397.3 88.9ZM386.6 61.2C390.2 69.3 394 77.7 398.1 86.4C413.4 77.6 420.4 74.9 422.8 74.3L414.7 47.4C404.1 51.8 394.8 56.4 386.6 61.2Z" fill="#5F5FFF"/>
<path d="M346.2 122.3C344.3 126.1 340.3 127.6 336.5 128.8C336.3 128.9 336 129.2 336.1 129.5C337.3 132.9 336.8 136.4 334.6 139.3C334.1 139.9 335.2 140.5 335.7 139.9C337.9 136.9 338.5 133.2 337.4 129.7C341.3 128.4 345.3 126.7 347.3 122.8C347.6 122.3 346.6 121.6 346.2 122.3Z" fill="#030047"/>
<path d="M344.4 145.4C342.1 141.5 341.4 137.3 342.6 132.9C342.8 132.2 341.6 131.8 341.4 132.5C340.2 137.1 340.8 141.8 343.3 146C343.8 146.6 344.7 146 344.4 145.4Z" fill="#030047"/>
<path d="M351.8 142.3C350.5 138.9 350.1 135.3 351 131.8C351.1 131.1 350 130.7 349.8 131.4C349 135.2 349.3 139 350.6 142.7C350.9 143.2 352.1 143 351.8 142.3Z" fill="#030047"/>
<path d="M425.7 40.6C413.5 44.7 404.5 51.3 407.2 86.4C409.9 121.5 409.4 132.3 409.4 132.3L488.2 121.1C488.1 121.2 465.1 27.2 425.7 40.6Z" fill="#5F5FFF"/>
<path d="M408.4 133.4V132.3C408.4 132.2 408.8 121.1 406.2 86.5C403.5 50.1 413.2 43.8 425.4 39.7C432.2 37.4 439 38.1 445.5 41.6C473 56.8 488.4 118.2 489 120.9L489.2 121.9L408.4 133.4ZM433.3 40.2C430.9 40.2 428.5 40.6 426 41.4C414.2 45.4 405.4 51.2 408.1 86.4C410.3 115.2 410.4 127.9 410.3 131.4L487 120.5C484.9 112.5 469.7 57.1 444.7 43.4C441 41.2 437.1 40.2 433.3 40.2Z" fill="#5F5FFF"/>
<path d="M407.5 92.8C407 92.8 406.7 92.4 406.7 92L406 71.2C406 70.7 406.4 70.2 406.8 70.2C407.3 70.2 407.8 70.6 407.8 71L408.5 91.7C408.5 92.3 408 92.8 407.5 92.8Z" fill="#030047"/>
<path d="M387.4 148.7C385.8 148.7 384.9 147.9 384.5 146.8L384.4 146.9C383.6 148.1 382.5 151.4 383.4 152.1C384.4 152.8 387.3 150.9 388.1 149.7L389.2 148.2C388.7 148.6 388.1 148.7 387.4 148.7Z" fill="#5F5FFF"/>
<path d="M443.5 41.6C443.5 41.6 430.4 62 442.5 66.8C454.6 71.6 457 102 447 110.2C437.2 118.3 421.8 123.4 410.8 127.4C398.9 124.2 393.5 124.6 389.2 131.4C388.5 132.5 388.2 133.7 388 134.7C387.5 136.8 389.6 138.6 391.6 137.7L392.1 137.5C384.8 143 384 145.3 385.4 147.3C388.3 151.3 396.1 144.1 396.1 144.1C395.7 148.3 400.3 149.1 400.3 149.1C401 152.5 404.2 153.7 411.2 153.7C416.2 153.7 416.3 152.6 416.3 149.8C423.3 150.4 427.1 150.4 432.9 149.1C448.2 145.7 463.8 140.6 478.4 122.4C503.8 91 459.9 45.8 443.5 41.6Z" fill="white"/>
<path d="M411.2 154.6C404.9 154.6 400.8 153.8 399.6 149.9C398 149.4 396 148.3 395.4 145.9C393.6 147.4 390.3 149.5 387.6 149.3C386.4 149.2 385.5 148.7 384.8 147.7C382.7 144.9 384.8 142.1 389.3 138.4C388.9 138.3 388.7 138 388.3 137.8C387.2 137 386.8 135.6 387.2 134.3C387.4 133.2 387.8 132 388.5 130.8C393.1 123.3 399.4 123.4 410.8 126.3L413.2 125.5C424 121.6 437.4 116.9 446.4 109.5C451.2 105.5 453.4 95.2 451.7 84.4C450.4 75.7 446.7 69.4 442.1 67.6C439.4 66.5 437.7 64.7 436.9 62.3C434.4 54.3 442.4 41.7 442.7 41.2L443.1 40.6L443.7 40.7C455 43.6 477 64 484.4 86.2C489 100.1 487.2 113 478.9 123.2C463.9 141.9 447.9 146.7 433 150.1C427.3 151.4 423.4 151.4 417.1 150.9C417 153.4 416 154.6 411.2 154.6ZM397.1 141.9L397 144.2C396.8 147.6 400.3 148.2 400.4 148.3L401 148.4L401.1 149C401.6 151.4 403.4 152.9 411.2 152.9C415.3 152.9 415.3 152.4 415.3 150V149L416.3 149.1C423.1 149.7 426.7 149.7 432.5 148.4C447.2 145.1 462.8 140.3 477.5 122.1C485.4 112.3 487.2 100.4 482.6 86.8C475.7 66 454.6 46.1 443.8 42.8C442.3 45.3 436.5 55.5 438.6 61.8C439.2 63.9 440.5 65.2 442.7 66C447.9 68.1 451.9 74.8 453.5 84.2C455 93.4 453.7 105.8 447.6 111C438.4 118.6 424.8 123.5 413.8 127.4L410.8 128.5L410.6 128.4C398.4 125.1 393.8 126 390 131.9C389.4 132.9 389.2 134 388.9 134.9C388.8 135.6 388.9 136.2 389.4 136.6C389.9 137.1 390.6 137.1 391.2 136.8L399.7 132.8L392.8 138C385.2 143.7 385.4 145.4 386.4 146.6C386.8 147.1 387.2 147.3 387.9 147.4C390.4 147.6 394.3 144.5 395.7 143.3L397.1 141.9Z" fill="#030047"/>
<path d="M401 132.3L408.2 122.6C410 120.2 406.3 117.4 404.4 119.8L391.2 136.9C394.6 135.6 399.8 133 401 132.3Z" fill="#5F5FFF"/>
<path d="M442.4 66.7C448.1 68.9 451.6 76.8 452.7 85.2C461.3 81.9 469.9 78.5 478.5 75.1C468.8 57.8 452.2 43.7 443.3 41.4C443.5 41.6 430.4 62 442.4 66.7Z" fill="#5F5FFF"/>
<path d="M452 86.6L451.9 85.5C450.7 76.4 446.9 69.6 442.2 67.7C439.5 66.6 437.8 64.8 437 62.4C434.5 54.4 442.5 41.8 442.8 41.3L443.2 40.7L443.8 40.8C453 43.1 470 57.8 479.4 74.9L479.9 75.7L473.7 78.1C466.9 80.8 460 83.6 453.1 86.1L452 86.6ZM442.8 65.9C448.1 68 452 74.7 453.5 84.1C460 81.7 466.6 79 473 76.5L477.2 74.8C468 58.8 452.6 45.3 443.7 42.7C442.2 45.2 436.4 55.4 438.5 61.7C439.3 63.7 440.7 65 442.8 65.9Z" fill="#5F5FFF"/>
<path d="M415.6 143.8C411.2 142.8 407 144 403.6 147C403 147.5 403.8 148.3 404.4 147.8C407.3 145.1 411.3 144 415.2 144.9C416.1 145.2 416.4 143.9 415.6 143.8Z" fill="#030047"/>
<path d="M411.4 136.3C406.3 135.7 401.5 137.5 397.9 141.1C397.3 141.7 398.3 142.6 398.7 141.9C402.1 138.5 406.6 136.9 411.3 137.4C412.3 137.6 412.3 136.4 411.4 136.3Z" fill="#030047"/>
<path d="M451.6 82.4C451.2 82.4 450.9 82.2 450.8 81.7C450.8 81.7 449.2 75.6 444.7 69.2C444.5 68.8 444.6 68.2 444.9 68C445.3 67.8 445.9 67.9 446.1 68.2C450.8 75 452.4 81 452.4 81.3C452.5 81.8 452.3 82.3 451.8 82.4C451.8 82.4 451.8 82.4 451.6 82.4Z" fill="white"/>
<path d="M414.2 149.3H410.9C410.2 149.3 410.2 150.5 410.9 150.5H414.2C414.9 150.5 414.9 149.3 414.2 149.3Z" fill="#030047"/>
<path d="M360.5 195C354.3 195 349.2 192.8 345.2 188.6C335.6 178.4 335.7 159.4 336 154.9H292.9C292.4 154.9 291.9 154.5 291.9 153.9C291.9 153.3 292.3 152.9 292.9 152.9H338L337.9 153.9C337.9 154.1 336.6 176.4 346.6 187.2C350.2 191.1 355 193 360.5 193C366 193 370.4 191.1 373.8 187.3C383.9 176.1 381.3 152.1 381.3 151.9C381.3 151.4 381.7 150.9 382.1 150.9C382.5 150.9 383.1 151.3 383.1 151.7C383.2 152.7 385.8 176.7 375.2 188.4C371.4 192.9 366.4 195 360.5 195Z" fill="#030047"/>
<path d="M296.6 143.8C299.1 143.8 301.2 141.7 301.2 139.2C301.2 136.7 299.1 134.6 296.6 134.6C294.1 134.6 292 136.7 292 139.2C292 141.7 294.1 143.8 296.6 143.8Z" fill="#35B7F3"/>
<path d="M310.3 143.8C312.8 143.8 314.9 141.7 314.9 139.2C314.9 136.7 312.8 134.6 310.3 134.6C307.8 134.6 305.7 136.7 305.7 139.2C305.7 141.7 307.8 143.8 310.3 143.8Z" fill="#35B7F3"/>
<path d="M368.3 173C368.3 179.9 362.7 185.5 355.8 185.5C348.9 185.5 343.3 179.9 343.3 173C343.3 166.1 348.9 160.5 355.8 160.5C362.7 160.6 368.3 163.7 368.3 173Z" fill="#35B7F3"/>
<path d="M375.4 180.8C375.4 184.8 372.2 188 368.2 188C364.2 188 361 184.8 361 180.8C361 176.8 364.2 173.6 368.2 173.6C372.3 173.6 375.4 175.5 375.4 180.8Z" fill="#030047"/>
<path d="M362.8 140.6L353.9 135.4L348.7 144.3L357.6 149.5L362.8 140.6Z" fill="#030047"/>
<path d="M361.1 152.3L379.8 146.2L377.1 166.8L361.1 152.3Z" fill="white"/>
<path d="M377.7 168.7L359.4 152L380.9 145L377.7 168.7ZM362.9 152.7L376.4 164.9L378.7 147.4L362.9 152.7Z" fill="#030047"/>
<path d="M348 157.4C347.9 157.4 347.6 157.4 347.5 157.3L342.7 154.5C342.2 154.3 342.1 153.7 342.3 153.3C342.5 152.8 343.1 152.7 343.5 152.9L348.3 155.7C348.8 155.9 348.9 156.5 348.7 156.9C348.7 157.3 348.4 157.4 348 157.4Z" fill="#030047"/>
<path d="M370.4 136.4C370.3 136.4 370 136.4 369.9 136.3C369.5 136.1 369.4 135.5 369.7 135.1L376 125.3C376.2 124.9 376.8 124.8 377.2 125.1C377.6 125.3 377.7 125.9 377.4 126.3L371.1 136.1C371 136.3 370.8 136.4 370.4 136.4Z" fill="#030047"/>
<path d="M368.3 125.2C367.8 125.2 367.3 124.8 367.3 124.2V118.9C367.3 118.4 367.7 117.9 368.3 117.9C368.9 117.9 369.3 118.3 369.3 118.9V124.2C369.2 124.8 368.9 125.2 368.3 125.2Z" fill="#030047"/>
<path d="M321.1 125.2C320.9 125.2 320.6 125.1 320.4 124.8L312.8 116.2C312.4 115.8 312.6 115.2 312.9 114.9C313.3 114.5 313.9 114.7 314.2 115L321.8 123.6C322.2 124 322 124.6 321.7 124.9C321.5 125.2 321.3 125.2 321.1 125.2Z" fill="#030047"/>
<path d="M326.9 104.3C326.7 104.3 326.3 104.2 326.2 103.9C326 103.5 326.1 102.9 326.4 102.7L332.8 98.5C333.2 98.3 333.8 98.4 334 98.7C334.2 99.1 334.1 99.7 333.8 99.9L327.4 104.1C327.2 104.3 327 104.3 326.9 104.3Z" fill="#030047"/>
<path d="M397.5 112.8C397.1 112.8 396.8 112.6 396.7 112.3L393.8 106.2C393.6 105.7 393.8 105.2 394.3 105C394.8 104.8 395.3 105 395.5 105.5L398.4 111.6C398.6 112.1 398.4 112.6 397.9 112.8C397.7 112.8 397.6 112.8 397.5 112.8Z" fill="#030047"/>
<path d="M430.7 21C430.6 16.8 426.3 14.2 421.6 16.5C420.9 16.9 420.3 17.3 419.5 18C419.5 18 419.5 18 419.4 17.9C412.7 10.9 402.2 9.9 395.9 15.8C389.6 21.7 391.1 31.3 396.4 39.4C401.4 46.7 411.7 50.6 419.9 41.5C422.6 38.5 424.1 34.5 424.3 30.3C428.6 29 430.8 24.7 430.7 21Z" fill="white"/>
<path d="M409.2 47.7C408.8 47.7 408.6 47.7 408.2 47.7C403.4 47.3 398.7 44.4 395.7 39.9C389.4 30.6 389.3 20.9 395.3 15.2C398.6 12.2 402.9 10.7 407.7 11.1C412.2 11.5 416.3 13.5 419.6 16.8C420.1 16.4 420.7 16.1 421.2 15.8C423.7 14.5 426.4 14.5 428.5 15.7C430.3 16.8 431.5 18.7 431.5 21C431.6 24.6 429.7 29.2 425.1 31.1C424.9 35.2 423.3 39.1 420.6 42.1C416.6 46.6 412.4 47.7 409.2 47.7ZM406.2 12.8C402.6 12.8 399.2 14.1 396.6 16.4C390.1 22.6 392.8 32.3 397.2 38.8C400 42.9 404.1 45.5 408.4 45.7C412.4 45.9 416.2 44.2 419.3 40.7C421.8 37.9 423.3 34.2 423.4 30.2V29.6L424 29.4C428 28.1 429.8 24.1 429.7 20.9C429.7 19.3 428.9 17.9 427.5 17.1C425.9 16.1 423.9 16.3 421.9 17.2C421.3 17.6 420.7 17.9 420 18.5L419.3 19.1L418.7 18.5C415.5 15.2 411.5 13.2 407.3 12.8C407 12.8 406.7 12.8 406.2 12.8Z" fill="#030047"/>
<path d="M406.8 31.4C407.1 30.8 406.8 30.1 406.2 29.8C405.6 29.5 404.9 29.8 404.6 30.4C404.3 31 404.6 31.7 405.2 32C405.8 32.3 406.6 32 406.8 31.4Z" fill="#030047"/>
<path d="M402.8 40.7C401.2 38.5 400 36.1 399 33.5C398.8 32.8 399.8 32.3 400.1 33C400.9 35.4 402.2 37.7 403.6 39.9C404.3 40.7 403.3 41.4 402.8 40.7Z" fill="#030047"/>
<path d="M394.3 26C397.9 24.7 409.1 15 413.3 22C414.4 23.8 414.4 25.3 416.5 24.8C418.4 24 418.1 21.5 418.1 21.5C419.6 19.4 420 17.4 421.6 16.5C426 9.5 415.2 0.699996 409.1 6C409.1 6 395.6 2.7 391.8 11.1C384.9 13.9 382.3 19.2 383.8 24.2C386.4 32.7 394.3 26 394.3 26Z" fill="#030047"/>
<path d="M420.7 25.3C420.6 22.4 422.4 19.8 425.2 19C425.9 18.8 426.4 20 425.7 20.1C423.5 20.7 421.9 22.8 422.1 25.1C421.9 25.9 420.7 26 420.7 25.3Z" fill="#030047"/>
<path opacity="0.3" d="M190.9 216.7H184.1C181.1 216.7 178.7 219.1 178.7 222.1V282.6C178.7 285.6 181.1 288 184.1 288H190.9C193.9 288 196.3 285.6 196.3 282.6V222.1C196.3 219.2 193.9 216.7 190.9 216.7Z" fill="url(#paint0_linear_2_2)"/>
<path opacity="0.3" d="M226.2 216.7H219.4C216.4 216.7 214 219.1 214 222.1V282.6C214 285.6 216.4 288 219.4 288H226.2C229.2 288 231.6 285.6 231.6 282.6V222.1C231.6 219.2 229.1 216.7 226.2 216.7Z" fill="url(#paint1_linear_2_2)"/>
<path opacity="0.3" d="M261.4 216.7H254.6C251.6 216.7 249.2 219.1 249.2 222.1V282.6C249.2 285.6 251.6 288 254.6 288H261.4C264.4 288 266.8 285.6 266.8 282.6V222.1C266.8 219.2 264.4 216.7 261.4 216.7Z" fill="url(#paint2_linear_2_2)"/>
<path opacity="0.3" d="M296.6 216.7H289.8C286.8 216.7 284.4 219.1 284.4 222.1V282.6C284.4 285.6 286.8 288 289.8 288H296.6C299.6 288 302 285.6 302 282.6V222.1C302 219.2 299.6 216.7 296.6 216.7Z" fill="url(#paint3_linear_2_2)"/>
<path opacity="0.3" d="M331.9 216.7H325C322 216.7 319.6 219.1 319.6 222.1V282.6C319.6 285.6 322 288 325 288H331.8C334.8 288 337.2 285.6 337.2 282.6V222.1C337.3 219.2 334.9 216.7 331.9 216.7Z" fill="url(#paint4_linear_2_2)"/>
<path opacity="0.3" d="M165.2 288.4C167.961 288.4 170.2 286.161 170.2 283.4C170.2 280.639 167.961 278.4 165.2 278.4C162.439 278.4 160.2 280.639 160.2 283.4C160.2 286.161 162.439 288.4 165.2 288.4Z" fill="url(#paint5_linear_2_2)"/>
<path opacity="0.3" d="M344.8 239C347.561 239 349.8 236.761 349.8 234C349.8 231.239 347.561 229 344.8 229C342.039 229 339.8 231.239 339.8 234C339.8 236.761 342.039 239 344.8 239Z" fill="url(#paint6_linear_2_2)"/>
<path d="M166.1 282.4C194.6 277.4 182 242.1 207.6 237.6C233.2 233.1 233.5 275.6 269.8 269.2C294.6 264.8 286.2 236.5 303.5 233.4C311.8 231.9 322.3 238.6 343 234.9" stroke="url(#paint7_linear_2_2)" stroke-width="4" stroke-miterlimit="10" stroke-linecap="round" stroke-linejoin="round"/>
<path opacity="0.3" d="M48 226.9H47.3C45.1 226.9 43.3 228.7 43.3 230.9V280.6C43.3 282.8 45.1 284.6 47.3 284.6H48C50.2 284.6 52 282.8 52 280.6V230.9C52 228.6 50.2 226.9 48 226.9Z" fill="url(#paint8_linear_2_2)"/>
<path d="M48 263.2H47.3C45.1 263.2 43.3 265 43.3 267.2V280.5C43.3 282.7 45.1 284.5 47.3 284.5H48C50.2 284.5 52 282.7 52 280.5V267.2C52 265 50.2 263.2 48 263.2Z" fill="#35B7F3"/>
<path opacity="0.3" d="M66.6 226.9H65.9C63.7 226.9 61.9 228.7 61.9 230.9V280.6C61.9 282.8 63.7 284.6 65.9 284.6H66.6C68.8 284.6 70.6 282.8 70.6 280.6V230.9C70.6 228.6 68.8 226.9 66.6 226.9Z" fill="url(#paint9_linear_2_2)"/>
<path opacity="0.5" d="M66.6 249.8H65.9C63.7 249.8 61.9 251.6 61.9 253.8V280.5C61.9 282.7 63.7 284.5 65.9 284.5H66.6C68.8 284.5 70.6 282.7 70.6 280.5V253.8C70.6 251.6 68.8 249.8 66.6 249.8Z" fill="#5F5FFF"/>
<path opacity="0.3" d="M85.2 226.9H84.5C82.3 226.9 80.5 228.7 80.5 230.9V280.6C80.5 282.8 82.3 284.6 84.5 284.6H85.2C87.4 284.6 89.2 282.8 89.2 280.6V230.9C89.1 228.6 87.3 226.9 85.2 226.9Z" fill="url(#paint10_linear_2_2)"/>
<path d="M85.2 244.4H84.5C82.3 244.4 80.5 246.2 80.5 248.4V280.5C80.5 282.7 82.3 284.5 84.5 284.5H85.2C87.4 284.5 89.2 282.7 89.2 280.5V248.4C89.1 246.2 87.3 244.4 85.2 244.4Z" fill="#35B7F3"/>
<path opacity="0.3" d="M103.7 226.9H103C100.8 226.9 99 228.7 99 230.9V280.6C99 282.8 100.8 284.6 103 284.6H103.7C105.9 284.6 107.7 282.8 107.7 280.6V230.9C107.7 228.6 105.9 226.9 103.7 226.9Z" fill="url(#paint11_linear_2_2)"/>
<path opacity="0.5" d="M103.7 253.8H103C100.8 253.8 99 255.6 99 257.8V280.5C99 282.7 100.8 284.5 103 284.5H103.7C105.9 284.5 107.7 282.7 107.7 280.5V257.8C107.7 255.5 105.9 253.8 103.7 253.8Z" fill="#5F5FFF"/>
<path d="M45.8988 187.878H47.0508C47.016 186.61 45.8949 185.69 44.2868 185.69C42.698 185.69 41.4804 186.599 41.4804 187.963C41.4804 189.065 42.269 189.711 43.5408 190.055L44.4762 190.31C45.3228 190.534 45.9761 190.812 45.9761 191.516C45.9761 192.289 45.2378 192.799 44.2211 192.799C43.3011 192.799 42.5357 192.39 42.4661 191.528H41.2677C41.3451 192.962 42.4545 193.847 44.2288 193.847C46.0882 193.847 47.159 192.869 47.159 191.528C47.159 190.101 45.8872 189.548 44.8821 189.301L44.109 189.1C43.4905 188.941 42.6671 188.651 42.671 187.894C42.671 187.221 43.2856 186.723 44.2598 186.723C45.1682 186.723 45.8138 187.148 45.8988 187.878ZM50.2216 193.847C51.2035 193.847 51.7562 193.348 51.9766 192.904H52.023V193.715H53.1518V189.773C53.1518 188.045 51.791 187.701 50.8478 187.701C49.7732 187.701 48.7836 188.133 48.397 189.216L49.4832 189.463C49.6533 189.042 50.0863 188.636 50.8633 188.636C51.6094 188.636 51.9921 189.026 51.9921 189.699V189.726C51.9921 190.147 51.5591 190.14 50.4922 190.263C49.3673 190.395 48.2153 190.689 48.2153 192.038C48.2153 193.205 49.0928 193.847 50.2216 193.847ZM50.4728 192.919C49.8196 192.919 49.3479 192.625 49.3479 192.053C49.3479 191.435 49.8969 191.214 50.5656 191.126C50.9406 191.075 51.8297 190.975 51.9959 190.809V191.574C51.9959 192.277 51.4354 192.919 50.4728 192.919ZM55.8471 185.799H54.6913V193.715H55.8471V185.799ZM59.9611 193.835C61.2561 193.835 62.1723 193.198 62.4351 192.231L61.3412 192.034C61.1324 192.594 60.6299 192.881 59.9727 192.881C58.9831 192.881 58.3182 192.239 58.2873 191.095H62.5086V190.685C62.5086 188.539 61.2252 187.701 59.8799 187.701C58.2254 187.701 57.1353 188.961 57.1353 190.785C57.1353 192.629 58.21 193.835 59.9611 193.835ZM58.2911 190.229C58.3375 189.386 58.9483 188.655 59.8877 188.655C60.7845 188.655 61.3721 189.32 61.3759 190.229H58.2911ZM68.2404 189.227C68.0007 188.304 67.2778 187.701 65.9944 187.701C64.6531 187.701 63.7021 188.408 63.7021 189.459C63.7021 190.302 64.2124 190.863 65.3257 191.11L66.3308 191.33C66.9029 191.458 67.1696 191.713 67.1696 192.084C67.1696 192.544 66.6787 192.904 65.921 192.904C65.229 192.904 64.7845 192.606 64.6453 192.022L63.5282 192.192C63.7214 193.244 64.5951 193.835 65.9287 193.835C67.3629 193.835 68.3564 193.074 68.3564 191.999C68.3564 191.16 67.8229 190.642 66.7328 190.391L65.7896 190.175C65.1363 190.02 64.8541 189.8 64.8579 189.398C64.8541 188.941 65.3489 188.617 66.006 188.617C66.7251 188.617 67.0575 189.015 67.1928 189.413L68.2404 189.227Z" fill="#444444"/>
<path d="M164.448 185.799H163.265V191.613H163.192L159.164 185.799H158.058V193.715H159.253V187.909H159.326L163.35 193.715H164.448V185.799ZM168.657 193.835C169.952 193.835 170.868 193.198 171.131 192.231L170.037 192.034C169.828 192.594 169.326 192.881 168.669 192.881C167.679 192.881 167.014 192.239 166.983 191.095H171.205V190.685C171.205 188.539 169.921 187.701 168.576 187.701C166.921 187.701 165.831 188.961 165.831 190.785C165.831 192.629 166.906 193.835 168.657 193.835ZM166.987 190.229C167.033 189.386 167.644 188.655 168.584 188.655C169.48 188.655 170.068 189.32 170.072 190.229H166.987ZM173.764 193.715H174.939L176.145 189.428H176.234L177.44 193.715H178.619L180.362 187.778H179.168L178.012 192.119H177.954L176.794 187.778H175.6L174.432 192.138H174.374L173.211 187.778H172.016L173.764 193.715ZM191.008 188.373C190.738 186.68 189.412 185.69 187.738 185.69C185.689 185.69 184.178 187.225 184.178 189.757C184.178 192.289 185.681 193.824 187.738 193.824C189.477 193.824 190.749 192.734 191.008 191.168L189.802 191.164C189.597 192.177 188.747 192.734 187.746 192.734C186.389 192.734 185.364 191.694 185.364 189.757C185.364 187.836 186.385 186.781 187.75 186.781C188.758 186.781 189.605 187.349 189.802 188.373H191.008ZM196.106 191.253C196.11 192.262 195.36 192.741 194.711 192.741C193.995 192.741 193.501 192.223 193.501 191.415V187.778H192.345V191.555C192.345 193.027 193.153 193.793 194.293 193.793C195.186 193.793 195.793 193.321 196.067 192.687H196.129V193.715H197.266V187.778H196.106V191.253ZM203.268 189.227C203.029 188.304 202.306 187.701 201.022 187.701C199.681 187.701 198.73 188.408 198.73 189.459C198.73 190.302 199.24 190.863 200.354 191.11L201.359 191.33C201.931 191.458 202.197 191.713 202.197 192.084C202.197 192.544 201.707 192.904 200.949 192.904C200.257 192.904 199.812 192.606 199.673 192.022L198.556 192.192C198.749 193.244 199.623 193.835 200.957 193.835C202.391 193.835 203.384 193.074 203.384 191.999C203.384 191.16 202.851 190.642 201.761 190.391L200.817 190.175C200.164 190.02 199.882 189.8 199.886 189.398C199.882 188.941 200.377 188.617 201.034 188.617C201.753 188.617 202.085 189.015 202.221 189.413L203.268 189.227ZM207.427 187.778H206.209V186.355H205.053V187.778H204.183V188.706H205.053V192.212C205.049 193.29 205.873 193.812 206.785 193.793C207.152 193.789 207.4 193.719 207.535 193.669L207.326 192.714C207.249 192.73 207.106 192.765 206.92 192.765C206.545 192.765 206.209 192.641 206.209 191.972V188.706H207.427V187.778ZM211.143 193.835C212.816 193.835 213.91 192.61 213.91 190.774C213.91 188.926 212.816 187.701 211.143 187.701C209.469 187.701 208.375 188.926 208.375 190.774C208.375 192.61 209.469 193.835 211.143 193.835ZM211.146 192.865C210.052 192.865 209.542 191.91 209.542 190.77C209.542 189.633 210.052 188.667 211.146 188.667C212.233 188.667 212.743 189.633 212.743 190.77C212.743 191.91 212.233 192.865 211.146 192.865ZM215.201 193.715H216.356V190.055C216.356 189.255 216.917 188.698 217.574 188.698C218.216 188.698 218.66 189.123 218.66 189.769V193.715H219.812V189.931C219.812 189.216 220.249 188.698 221.003 188.698C221.614 188.698 222.116 189.038 222.116 189.842V193.715H223.272V189.734C223.272 188.377 222.514 187.701 221.44 187.701C220.585 187.701 219.944 188.11 219.658 188.744H219.596C219.337 188.095 218.792 187.701 217.999 187.701C217.215 187.701 216.631 188.091 216.383 188.744H216.31V187.778H215.201V193.715ZM227.38 193.835C228.675 193.835 229.591 193.198 229.854 192.231L228.76 192.034C228.552 192.594 228.049 192.881 227.392 192.881C226.402 192.881 225.737 192.239 225.706 191.095H229.928V190.685C229.928 188.539 228.644 187.701 227.299 187.701C225.645 187.701 224.555 188.961 224.555 190.785C224.555 192.629 225.629 193.835 227.38 193.835ZM225.71 190.229C225.757 189.386 226.367 188.655 227.307 188.655C228.204 188.655 228.791 189.32 228.795 190.229H225.71ZM231.21 193.715H232.366V190.09C232.366 189.313 232.965 188.752 233.785 188.752C234.024 188.752 234.295 188.795 234.388 188.822V187.716C234.272 187.701 234.044 187.689 233.897 187.689C233.201 187.689 232.606 188.083 232.389 188.721H232.327V187.778H231.21V193.715Z" fill="#444444"/>
<defs>
<linearGradient id="paint0_linear_2_2" x1="197.144" y1="508.607" x2="185.193" y2="190.701" gradientUnits="userSpaceOnUse">
<stop stop-color="#A9C0FF"/>
<stop offset="1" stop-color="#D6E5FF"/>
</linearGradient>
<linearGradient id="paint1_linear_2_2" x1="232.333" y1="507.285" x2="220.381" y2="189.379" gradientUnits="userSpaceOnUse">
<stop stop-color="#A9C0FF"/>
<stop offset="1" stop-color="#D6E5FF"/>
</linearGradient>
<linearGradient id="paint2_linear_2_2" x1="267.521" y1="505.964" x2="255.569" y2="188.058" gradientUnits="userSpaceOnUse">
<stop stop-color="#A9C0FF"/>
<stop offset="1" stop-color="#D6E5FF"/>
</linearGradient>
<linearGradient id="paint3_linear_2_2" x1="302.709" y1="504.641" x2="290.758" y2="186.735" gradientUnits="userSpaceOnUse">
<stop stop-color="#A9C0FF"/>
<stop offset="1" stop-color="#D6E5FF"/>
</linearGradient>
<linearGradient id="paint4_linear_2_2" x1="337.898" y1="503.32" x2="325.946" y2="185.414" gradientUnits="userSpaceOnUse">
<stop stop-color="#A9C0FF"/>
<stop offset="1" stop-color="#D6E5FF"/>
</linearGradient>
<linearGradient id="paint5_linear_2_2" x1="160.154" y1="283.411" x2="170.222" y2="283.411" gradientUnits="userSpaceOnUse">
<stop stop-color="#A9C0FF"/>
<stop offset="1" stop-color="#A986FF"/>
</linearGradient>
<linearGradient id="paint6_linear_2_2" x1="339.791" y1="233.974" x2="349.859" y2="233.974" gradientUnits="userSpaceOnUse">
<stop stop-color="#A9C0FF"/>
<stop offset="1" stop-color="#A986FF"/>
</linearGradient>
<linearGradient id="paint7_linear_2_2" x1="161.36" y1="267.026" x2="344.99" y2="234.54" gradientUnits="userSpaceOnUse">
<stop stop-color="#35B7F3"/>
<stop offset="1" stop-color="#A986FF"/>
</linearGradient>
<linearGradient id="paint8_linear_2_2" x1="47.4726" y1="220.77" x2="48.0756" y2="322.864" gradientUnits="userSpaceOnUse">
<stop stop-color="#A9C0FF"/>
<stop offset="1" stop-color="#D6E5FF"/>
</linearGradient>
<linearGradient id="paint9_linear_2_2" x1="66.0324" y1="220.77" x2="66.6354" y2="322.864" gradientUnits="userSpaceOnUse">
<stop stop-color="#A9C0FF"/>
<stop offset="1" stop-color="#D6E5FF"/>
</linearGradient>
<linearGradient id="paint10_linear_2_2" x1="84.5922" y1="220.77" x2="85.1952" y2="322.864" gradientUnits="userSpaceOnUse">
<stop stop-color="#A9C0FF"/>
<stop offset="1" stop-color="#D6E5FF"/>
</linearGradient>
<linearGradient id="paint11_linear_2_2" x1="103.152" y1="220.77" x2="103.755" y2="322.864" gradientUnits="userSpaceOnUse">
<stop stop-color="#A9C0FF"/>
<stop offset="1" stop-color="#D6E5FF"/>
</linearGradient>
</defs>
</svg>
