<?xml version="1.0" encoding="utf-8"?>
<!-- Generator: Adobe Illustrator 25.4.1, SVG Export Plug-In . SVG Version: 6.00 Build 0)  -->
<svg version="1.1" id="Layer_1" xmlns="http://www.w3.org/2000/svg" xmlns:xlink="http://www.w3.org/1999/xlink" x="0px" y="0px"
	 viewBox="0 0 22 22" style="enable-background:new 0 0 22 22;" xml:space="preserve">
<style type="text/css">
	.st0{fill:#FFDD67;}
	.st1{fill:#65B1EF;}
	.st2{fill:#664E27;}
	.st3{fill:#917524;}
</style>
<g>
	<g>
		<circle class="st0" cx="11" cy="11" r="10.8"/>
		<path class="st1" d="M17,5.4c0,3.6,4.9,3.6,4.9,0c0-2.6-2.4-5.2-2.4-5.2S17,2.8,17,5.4z"/>
		<circle class="st2" cx="15.2" cy="12.5" r="1.8"/>
		<circle class="st2" cx="6.9" cy="12.5" r="1.8"/>
		<path class="st3" d="M8.7,7.4C7.5,8.4,6,8.8,4.5,8.5c-0.2,0-0.4,0.7-0.1,0.8C6.1,9.6,7.9,9.1,9.2,8C9.4,7.8,8.9,7.2,8.7,7.4z"/>
		<path class="st3" d="M17.6,8.5c-1.5,0.3-3.1-0.1-4.2-1.1c-0.2-0.1-0.7,0.4-0.5,0.6c1.3,1.1,3.1,1.6,4.9,1.3
			C18,9.2,17.8,8.4,17.6,8.5z"/>
		<path class="st2" d="M13.9,18.2H8.1c-0.5,0-0.5-1.4,0-1.4h5.8C14.5,16.8,14.5,18.2,13.9,18.2z"/>
	</g>
</g>
</svg>
