<?xml version="1.0" encoding="utf-8"?>
<!-- Generator: Adobe Illustrator 25.4.1, SVG Export Plug-In . SVG Version: 6.00 Build 0)  -->
<svg version="1.1" id="Layer_1" xmlns="http://www.w3.org/2000/svg" xmlns:xlink="http://www.w3.org/1999/xlink" x="0px" y="0px"
	 viewBox="0 0 16.6 16" style="enable-background:new 0 0 16.6 16;" xml:space="preserve">
<style type="text/css">
	.st0{fill:none;stroke:#999999;stroke-width:1.5;stroke-linecap:round;stroke-linejoin:round;}
</style>
<g>
	<ellipse class="st0" cx="8.3" cy="8" rx="2" ry="1.9"/>
	<path class="st0" d="M13.2,9.9c-0.2,0.4-0.1,0.8,0.2,1.1l0,0c0.5,0.5,0.5,1.3,0,1.8c0,0,0,0,0,0c-0.5,0.5-1.3,0.5-1.9,0
		c0,0,0,0,0,0l0,0c-0.3-0.3-0.8-0.4-1.2-0.2c-0.4,0.2-0.7,0.5-0.7,0.9v0.1c0,0.7-0.6,1.3-1.3,1.3c-0.7,0-1.3-0.6-1.3-1.3v-0.1
		c0-0.4-0.3-0.8-0.7-0.9c-0.4-0.2-0.9-0.1-1.2,0.2l0,0c-0.5,0.5-1.3,0.5-1.9,0c0,0,0,0,0,0c-0.5-0.5-0.5-1.3,0-1.8c0,0,0,0,0,0l0,0
		c0.3-0.3,0.4-0.8,0.2-1.1c-0.2-0.4-0.6-0.6-1-0.6H2.4c-0.7,0-1.3-0.6-1.3-1.3c0-0.7,0.6-1.3,1.3-1.3h0.1c0.4,0,0.8-0.3,1-0.7
		C3.6,5.7,3.5,5.3,3.2,5l0,0c-0.5-0.5-0.5-1.3,0-1.8c0,0,0,0,0,0c0.5-0.5,1.3-0.5,1.9,0c0,0,0,0,0,0l0,0c0.3,0.3,0.8,0.4,1.2,0.2
		h0.1C6.7,3.3,7,2.9,7,2.5V2.4c0-0.7,0.6-1.3,1.3-1.3s1.3,0.6,1.3,1.3v0.1c0,0.4,0.3,0.8,0.7,0.9c0.4,0.2,0.9,0.1,1.2-0.2l0,0
		c0.5-0.5,1.3-0.5,1.9,0c0,0,0,0,0,0c0.5,0.5,0.5,1.3,0,1.8c0,0,0,0,0,0l0,0c-0.3,0.3-0.4,0.8-0.2,1.1v0.1c0.2,0.4,0.6,0.6,1,0.6
		h0.1c0.7,0,1.3,0.6,1.3,1.3S15,9.3,14.3,9.3h-0.1C13.8,9.3,13.4,9.5,13.2,9.9z"/>
</g>
</svg>
