<?xml version="1.0" encoding="utf-8"?>
<!-- Generator: Adobe Illustrator 26.0.1, SVG Export Plug-In . SVG Version: 6.00 Build 0)  -->
<svg version="1.1" id="Layer_1" xmlns="http://www.w3.org/2000/svg" xmlns:xlink="http://www.w3.org/1999/xlink" x="0px" y="0px"
	 viewBox="0 0 24 24" style="enable-background:new 0 0 24 24;" xml:space="preserve">
<style type="text/css">
	.st0{fill:none;stroke:#999999;stroke-width:1.5;stroke-linecap:round;stroke-linejoin:round;}
</style>
<g>
	<path class="st0" d="M20.2,9.8H3.8c-1.7,0-3-1.3-3-3V3.9c0-1.6,1.4-3,3-3h16.4c1.7,0,3,1.3,3,3v2.9C23.2,8.4,21.8,9.8,20.2,9.8z"/>
	<path class="st0" d="M20.2,23.1H3.8c-1.7,0-3-1.3-3-3v-2.9c0-1.6,1.4-3,3-3h16.4c1.7,0,3,1.3,3,3v2.9
		C23.2,21.7,21.8,23.1,20.2,23.1z"/>
	<path class="st0" d="M5.3,4.3v2.2"/>
	<path class="st0" d="M9.8,4.3v2.2"/>
	<path class="st0" d="M5.3,17.5v2.2"/>
	<path class="st0" d="M9.8,17.5v2.2"/>
	<path class="st0" d="M14.2,5.4h4.5"/>
	<path class="st0" d="M14.2,18.6h4.5"/>
</g>
</svg>
