<?xml version="1.0" encoding="utf-8"?>
<!-- Generator: Adobe Illustrator 26.0.1, SVG Export Plug-In . SVG Version: 6.00 Build 0)  -->
<svg version="1.1" id="Layer_1" xmlns="http://www.w3.org/2000/svg" xmlns:xlink="http://www.w3.org/1999/xlink" x="0px" y="0px"
	 viewBox="0 0 22 22" style="enable-background:new 0 0 22 22;" xml:space="preserve">
<style type="text/css">
	.st0{fill:none;stroke:#35B7F3;stroke-width:1.5;stroke-linecap:round;stroke-linejoin:round;}
	.st1{display:none;}
	.st2{display:inline;fill:none;stroke:#35B7F3;stroke-width:1.5;stroke-linecap:round;stroke-linejoin:round;}
</style>
<g>
	<path class="st0" d="M5,5.2v2"/>
	<path class="st0" d="M9,5.2v2"/>
	<path class="st0" d="M8,21.2h6c5,0,7-2,7-7.1V8c0-5.1-2-7.1-7-7.1H8c-5,0-7,2-7,7.1V14C1,19.1,3,21.2,8,21.2z"/>
	<path class="st0" d="M5,15.1v2"/>
	<path class="st0" d="M9,15.1v2"/>
	<path class="st0" d="M13,6.2h4"/>
	<path class="st0" d="M13,16.1h4"/>
	<path class="st0" d="M1,11h20"/>
</g>
<g class="st1">
	<path class="st2" d="M11,21.2c5.5,0,10-4.6,10-10.2S16.5,0.8,11,0.8S1,5.4,1,11S5.5,21.2,11,21.2z"/>
	<path class="st2" d="M7,11h8"/>
	<path class="st2" d="M11,15.1V6.9"/>
</g>
</svg>
