<?xml version="1.0" encoding="utf-8"?>
<!-- Generator: Adobe Illustrator 25.4.1, SVG Export Plug-In . SVG Version: 6.00 Build 0)  -->
<svg version="1.1" id="Layer_1" xmlns="http://www.w3.org/2000/svg" xmlns:xlink="http://www.w3.org/1999/xlink" x="0px" y="0px"
	 viewBox="0 0 27.6 28.8" style="enable-background:new 0 0 27.6 28.8;" xml:space="preserve">
<style type="text/css">
	.st0{fill:#999999;}
</style>
<g>
	<path class="st0" d="M24.4,0.4H8.5c-0.2,0-0.4,0-0.6,0.1C7.6,0.4,7.3,0.4,7,0.4C3.4,0.4,0.4,3.3,0.4,7c0,3.2,2.2,5.9,5.4,6.5v12.1
		c0,1.5,1.3,2.8,2.8,2.8h15.9c1.5,0,2.8-1.3,2.8-2.8V3.2C27.2,1.7,26,0.4,24.4,0.4z M2.3,7c0-2.6,2.1-4.8,4.8-4.8s4.8,2.1,4.8,4.8
		S9.7,11.8,7,11.8c0,0,0,0,0,0C4.4,11.8,2.3,9.7,2.3,7C2.3,7,2.3,7,2.3,7z M25.3,25.6c0,0.5-0.4,0.9-0.9,0.9l0,0H8.5
		c-0.5,0-0.9-0.4-0.9-0.9l0,0v-12c1.6-0.1,3-0.9,4.1-2c0.1,0,0.2,0,0.2,0h9c0.5,0,0.9-0.4,0.9-0.9c0-0.5-0.4-0.9-0.9-0.9
		c0,0,0,0,0,0h-8c1.3-2.6,0.7-5.7-1.3-7.7h12.8c0.5,0,0.9,0.4,0.9,0.9l0,0L25.3,25.6z"/>
	<path class="st0" d="M8.2,9.5c0.4,0.4,1,0.4,1.3,0c0.4-0.4,0.4-1,0-1.3L8.3,7l1.2-1.2c0.4-0.4,0.4-1,0-1.3c-0.4-0.4-0.9-0.4-1.3,0
		c0,0,0,0,0,0L7,5.7L5.8,4.5c-0.4-0.4-0.9-0.4-1.3,0c0,0,0,0,0,0c-0.4,0.4-0.4,1,0,1.3L5.7,7L4.5,8.2c-0.4,0.4-0.4,1,0,1.3
		c0.2,0.2,0.4,0.3,0.7,0.3c0.2,0,0.5-0.1,0.7-0.3L7,8.3L8.2,9.5z"/>
	<path class="st0" d="M21,13.5h-9c-0.5,0-0.9,0.4-0.9,0.9s0.4,0.9,0.9,0.9h9c0.5,0,0.9-0.4,0.9-0.9C21.8,13.9,21.4,13.5,21,13.5
		C21,13.5,21,13.5,21,13.5z"/>
	<path class="st0" d="M21,17.1h-9c-0.5,0-0.9,0.4-0.9,0.9c0,0.5,0.4,0.9,0.9,0.9c0,0,0,0,0,0h9c0.5,0,0.9-0.4,0.9-0.9
		C21.8,17.5,21.4,17.1,21,17.1z"/>
</g>
</svg>
